<svg xmlns="http://www.w3.org/2000/svg" width="30" height="30" fill="none"><path fill="url(#a)" d="M14.695.002a17.39 17.39 0 0 0-2.614.217c-1.66.286-1.642.309.242.31 1.918 0 2.512.063 3.924.42 3.482.882 6.233 2.916 7.935 5.867 1.087 1.886 1.513 4.471 1.098 6.664-.232 1.222-.821 2.662-1.532 3.742-.467.71-1.49 1.803-2.186 2.333-.908.692-2.26 1.31-3.325 1.52-.623.123-2.204.101-2.853-.04-2.328-.504-4.027-1.968-4.738-4.084-.598-1.779-.223-3.678.972-4.923.171-.179.279-.325.239-.325-.14 0-1.009.43-1.443.714a6.38 6.38 0 0 0-1.625 1.559c-2.474 3.321-1.625 7.938 1.963 10.672 1.58 1.205 3.442 1.907 5.608 2.116.657.063 2.041.033 2.75-.06 1.893-.25 3.447-.795 5.102-1.788 2.95-1.77 4.843-4.495 5.593-8.052.209-.99.261-3.183.102-4.272-.648-4.428-3.337-8.264-7.44-10.614-1.504-.861-3.435-1.531-5.26-1.826-.701-.113-1.598-.162-2.512-.15Zm-1.724 1.65a12.202 12.202 0 0 0-5.698 1.28C3.32 4.925.63 8.945.08 13.685c-.069.592-.11 2.171-.058 2.224.016.016.083-.254.148-.6.066-.345.253-1.039.416-1.54 1.101-3.387 3.228-5.78 6.18-6.952 1.213-.482 3.019-.778 4.188-.687 2.319.182 4.019.798 5.668 2.055a8.404 8.404 0 0 1 2.267 2.578c.268.471.172.398-.18-.136-1.268-1.927-3.29-3.231-5.65-3.643-4.34-.757-8.627 1.576-10.584 5.762-.7 1.496-1.037 2.917-1.094 4.605-.055 1.665.144 2.863.724 4.358 1.682 4.335 6.085 7.603 11.01 8.17l.88.102c.492.058 2.63-.027 3.31-.132 2.093-.321 4.158-1.044 5.832-2.041 1.448-.862 3.15-2.345 4.168-3.63l.433-.548-.505.449c-1.381 1.229-2.964 2.226-4.524 2.852-4.279 1.718-9.499.866-12.764-2.083-1.01-.913-1.732-1.842-2.294-2.955-.68-1.346-.966-2.513-.968-3.936-.003-2.118.657-3.777 2.069-5.197a6.58 6.58 0 0 1 2.025-1.437c1.045-.498 1.57-.607 2.947-.607.92 0 1.28.027 1.621.12 2.412.663 4.035 2.297 4.493 4.524.185.9.023 1.848-.502 2.94-.268.556-.44.803-.913 1.313-.321.345-.643.646-.716.67-.073.022-.132.067-.132.098 0 .087 1.18-.254 1.77-.51.976-.424 1.656-.895 2.457-1.705 1.243-1.256 1.922-2.516 2.3-4.276.175-.812.177-2.734.005-3.545a10.974 10.974 0 0 0-1.718-3.971c-2.1-2.978-5.713-4.66-9.42-4.722Z"/><defs><linearGradient id="a" x1="15" x2="15" y1="0" y2="36.071" gradientUnits="userSpaceOnUse"><stop stop-color="#fff"/><stop offset="1" stop-color="#fff" stop-opacity=".3"/></linearGradient></defs></svg>