<svg width="115" height="116" viewBox="0 0 115 116" fill="none" xmlns="http://www.w3.org/2000/svg">
<g clip-path="url(#clip0_703_2568)">
<path fill-rule="evenodd" clip-rule="evenodd" d="M57.5 115.485C89.2564 115.485 115 89.6492 115 57.7792C115 25.9093 89.2564 0.0736084 57.5 0.0736084C25.7436 0.0736084 0 25.9093 0 57.7792C0 89.6492 25.7436 115.485 57.5 115.485ZM84.8125 51.749C84.8125 55.0794 82.1223 57.7792 78.8038 57.7792H63.7053C60.3867 57.7792 57.6964 60.479 57.6964 63.8094V79.1591C57.6964 82.4896 55.0063 85.1893 51.6879 85.1893H36.1962C32.8777 85.1893 30.1874 82.4896 30.1874 79.1591V63.8094C30.1874 60.479 32.8777 57.7792 36.1962 57.7792H51.2948C54.6133 57.7792 57.3036 55.0794 57.3036 51.749V36.3993C57.3036 33.0688 59.9936 30.369 63.3122 30.369H78.8038C82.1223 30.369 84.8125 33.0688 84.8125 36.3993V51.749Z" fill="white"/>
</g>
<defs>
<clipPath id="clip0_703_2568">
<rect width="115" height="116" fill="white"/>
</clipPath>
</defs>
</svg>
