<svg xmlns="http://www.w3.org/2000/svg" width="196" height="27" fill="none"><path fill="url(#a)" d="M11.72 6.823h5.026l-5.14 14.11H5.806L.666 6.823h5.113L8.72 17.575l2.998-10.752Zm13.274-.282c1.504 0 2.818.292 3.942.875a6.083 6.083 0 0 1 2.656 2.511c.647 1.091.97 2.408.97 3.95 0 1.544-.323 2.87-.97 3.98a6.304 6.304 0 0 1-2.656 2.511c-1.124.565-2.438.847-3.942.847-1.466 0-2.77-.282-3.913-.847a6.488 6.488 0 0 1-2.685-2.511c-.628-1.11-.942-2.436-.942-3.98 0-1.542.314-2.859.942-3.95a6.255 6.255 0 0 1 2.685-2.511c1.143-.583 2.447-.875 3.913-.875Zm0 3.415c-.552 0-1.028.131-1.428.395-.4.263-.705.686-.914 1.27-.21.583-.314 1.335-.314 2.257 0 .922.104 1.674.314 2.258.21.564.514.987.914 1.27.4.263.876.394 1.428.394.571 0 1.057-.131 1.457-.395.4-.282.704-.705.913-1.27.21-.583.315-1.335.315-2.257 0-.922-.105-1.674-.314-2.258-.21-.583-.515-1.006-.914-1.27-.4-.263-.886-.394-1.457-.394Zm12.728-4.77c-.99 0-1.714-.178-2.17-.536-.438-.376-.658-.959-.658-1.75 0-.808.22-1.391.657-1.749.457-.376 1.181-.564 2.171-.564.971 0 1.685.188 2.142.564.457.358.686.94.686 1.75 0 .79-.229 1.373-.686 1.75-.457.357-1.17.536-2.142.536Zm2.428 1.637v14.11h-4.856V6.823h4.856Zm8.712 14.392c-1.18 0-2.218-.282-3.114-.847-.875-.583-1.56-1.42-2.056-2.511-.476-1.091-.714-2.399-.714-3.922 0-1.58.247-2.917.742-4.008.515-1.09 1.22-1.928 2.114-2.511.914-.583 1.961-.875 3.142-.875 1.295 0 2.333.395 3.113 1.185.8.772 1.314 1.76 1.543 2.963l-.457.593V.84h4.855v20.092H53.69l-.315-4.797.572.423c-.114.94-.41 1.759-.886 2.455a4.896 4.896 0 0 1-1.77 1.637c-.705.376-1.514.564-2.428.564Zm1.685-3.527c.552 0 1.019-.141 1.4-.424.4-.3.704-.743.913-1.326.21-.583.315-1.298.315-2.145 0-.79-.105-1.458-.315-2.003-.19-.565-.485-.988-.885-1.27-.38-.301-.847-.451-1.4-.451-.837 0-1.504.31-1.999.93-.476.603-.714 1.562-.714 2.879s.238 2.286.714 2.907c.476.602 1.133.902 1.97.902Zm10.966 3.245V6.823h4.285l.2 3.048c.361-1.053.895-1.872 1.599-2.455.724-.583 1.638-.875 2.742-.875.362 0 .667.028.914.085.266.056.476.132.628.226l-.486 3.95a3.071 3.071 0 0 0-.742-.17 5.545 5.545 0 0 0-1.056-.084c-.572 0-1.104.122-1.6.367a2.926 2.926 0 0 0-1.2 1.1c-.286.47-.428 1.073-.428 1.806v7.112h-4.856ZM84.226.333v25.34h-1.97V.333h1.97Zm16.393 4.854c-.989 0-1.713-.18-2.17-.537-.438-.376-.658-.959-.658-1.75 0-.808.22-1.391.658-1.749.457-.376 1.181-.564 2.17-.564.971 0 1.686.188 2.143.564.456.358.685.94.685 1.75 0 .79-.229 1.373-.685 1.75-.457.357-1.172.536-2.143.536Zm2.428 1.636v14.11h-4.856V6.823h4.856Zm3.458 14.11V6.823h4.341l.143 2.737c.457-.996 1.094-1.749 1.914-2.257.838-.508 1.799-.762 2.884-.762 1.066 0 1.99.235 2.771.706.78.47 1.36 1.166 1.743 2.088a4.825 4.825 0 0 1 1.17-1.552 5.084 5.084 0 0 1 1.686-.931 6.16 6.16 0 0 1 1.942-.31c.951 0 1.788.187 2.514.564.722.357 1.293.912 1.713 1.664.437.734.657 1.656.657 2.766v9.397h-4.856v-8.297c0-.903-.181-1.533-.542-1.89-.343-.358-.811-.537-1.4-.537-.476 0-.914.123-1.314.367-.382.226-.676.574-.885 1.044-.211.47-.315 1.063-.315 1.778v7.535h-4.854v-8.297c0-.903-.183-1.533-.543-1.89-.363-.358-.829-.537-1.4-.537a2.52 2.52 0 0 0-1.257.34c-.382.225-.686.582-.914 1.072-.229.47-.342 1.09-.342 1.862v7.45h-4.856Zm34.856-8.946c0-.658-.19-1.175-.571-1.552-.361-.395-.857-.592-1.485-.592-.628 0-1.171.16-1.628.48-.438.3-.743.846-.915 1.636L132.65 11c.267-1.354.971-2.435 2.113-3.245 1.143-.808 2.752-1.213 4.827-1.213 1.391 0 2.571.207 3.541.62.991.396 1.743.998 2.258 1.807.533.79.798 1.768.798 2.935v5.164c0 .733.335 1.1 1 1.1.343 0 .62-.037.828-.113l-.285 2.738c-.571.263-1.265.395-2.085.395-.743 0-1.399-.113-1.971-.34a3.032 3.032 0 0 1-1.341-1.071c-.324-.49-.487-1.1-.487-1.834v-.17l.543-.197c0 .809-.246 1.486-.743 2.031-.475.546-1.103.95-1.884 1.214a7.288 7.288 0 0 1-2.4.395c-.971 0-1.817-.15-2.541-.452-.724-.3-1.286-.733-1.686-1.298-.38-.583-.572-1.298-.572-2.144 0-1.016.306-1.854.915-2.512.628-.677 1.609-1.147 2.941-1.41l5.399-1.101-.028 2.54-2.743.564c-.57.113-1 .282-1.285.508-.265.207-.4.526-.4.96 0 .413.153.723.457.93.306.207.668.31 1.086.31.325 0 .628-.046.913-.14.305-.094.572-.235.8-.423a2.21 2.21 0 0 0 .543-.762c.134-.302.2-.659.2-1.073v-3.725Zm22.564-8.945.4 3.217a1.096 1.096 0 0 0-.343-.057 2.11 2.11 0 0 0-.343-.028c-.838 0-1.466.207-1.885.621-.4.395-.6.894-.6 1.496l-1.713-.621c0-.771.142-1.515.428-2.23a4.052 4.052 0 0 1 1.314-1.749c.608-.451 1.371-.677 2.284-.677h.2c.095 0 .182.01.258.028ZM159.013 17.8c1.656 0 2.921.348 3.798 1.044.895.678 1.343 1.656 1.343 2.935 0 1.166-.325 2.136-.972 2.907-.648.771-1.561 1.345-2.741 1.721-1.163.395-2.543.593-4.142.593-2.59 0-4.456-.32-5.598-.96-1.143-.64-1.714-1.505-1.714-2.596 0-.79.323-1.43.971-1.919.647-.489 1.723-.752 3.228-.79l-.115.452c-1.161-.15-2.028-.49-2.598-1.016-.572-.527-.858-1.242-.858-2.145s.362-1.637 1.086-2.2c.722-.565 1.685-.876 2.885-.932l1.771.818h-.458c-.742.038-1.266.16-1.57.367-.306.207-.458.46-.458.762 0 .32.132.564.4.734.267.15.666.225 1.2.225h4.542Zm-2.686 6.096c.915 0 1.666-.066 2.256-.198.61-.113 1.067-.282 1.372-.508.303-.207.456-.451.456-.734a.83.83 0 0 0-.313-.677c-.211-.15-.591-.226-1.143-.226h-5.113c-.361 0-.656.095-.885.283a.907.907 0 0 0-.314.705c0 .433.323.762.971.988.647.244 1.552.367 2.713.367Zm.172-17.355c1.446 0 2.684.188 3.712.565 1.03.376 1.81.921 2.343 1.636.552.696.828 1.561.828 2.596 0 1.016-.276 1.882-.828 2.597-.533.714-1.313 1.26-2.343 1.636-1.028.358-2.266.536-3.712.536-2.268 0-3.99-.414-5.17-1.241-1.162-.828-1.742-2.004-1.742-3.528 0-1.034.266-1.9.799-2.596.552-.715 1.343-1.26 2.371-1.636 1.029-.377 2.274-.565 3.742-.565Zm0 2.737c-.629 0-1.142.179-1.542.536-.382.358-.572.866-.572 1.524 0 .64.19 1.138.572 1.496.4.357.913.536 1.542.536.608 0 1.114-.179 1.514-.536.4-.358.6-.856.6-1.496 0-.658-.2-1.166-.6-1.524-.4-.357-.906-.536-1.514-.536Zm16.552 11.937c-1.58 0-2.95-.292-4.113-.875a6.296 6.296 0 0 1-2.656-2.511c-.628-1.092-.943-2.408-.943-3.951 0-1.543.315-2.86.943-3.95a6.343 6.343 0 0 1 2.628-2.512c1.143-.583 2.447-.875 3.913-.875 1.504 0 2.78.292 3.827.875 1.068.564 1.876 1.354 2.428 2.37.553.997.828 2.145.828 3.443 0 .339-.009.677-.028 1.016a7.38 7.38 0 0 1-.087.846h-11.309v-2.567h9.168l-2.313.874c0-1.128-.21-1.994-.63-2.596-.398-.602-1.028-.903-1.884-.903-.609 0-1.132.141-1.572.424-.417.282-.742.724-.97 1.326-.21.602-.315 1.373-.315 2.314 0 .921.125 1.674.372 2.257.248.565.6.979 1.057 1.242.456.244 1.01.367 1.656.367.724 0 1.296-.142 1.714-.424a2.51 2.51 0 0 0 .972-1.185l3.884 1.27a4.495 4.495 0 0 1-1.4 2.06c-.647.545-1.428.96-2.342 1.241a9.338 9.338 0 0 1-2.828.424Zm15.57 0c-1.428 0-2.76-.226-3.999-.677-1.217-.47-2.228-1.139-3.028-2.004l2.285-2.652c.476.601 1.106 1.11 1.886 1.523.8.395 1.685.593 2.656.593.59 0 1.076-.085 1.456-.254.382-.17.572-.433.572-.79a.747.747 0 0 0-.286-.621c-.189-.17-.572-.31-1.142-.423l-2-.395c-1.788-.358-3.066-.885-3.827-1.58-.743-.716-1.115-1.647-1.115-2.794 0-.771.24-1.505.715-2.201.476-.715 1.211-1.289 2.199-1.722.99-.451 2.257-.677 3.798-.677 1.448 0 2.724.207 3.828.62 1.106.415 1.982 1.017 2.628 1.807l-2.313 2.596c-.457-.564-1.047-1.007-1.772-1.326a5.323 5.323 0 0 0-2.171-.48c-.456 0-.845.047-1.17.141-.304.075-.532.188-.686.339a.761.761 0 0 0-.228.564c0 .245.114.461.343.65.248.168.696.319 1.343.45l2.598.509c1.467.263 2.524.743 3.171 1.439.648.696.971 1.533.971 2.511 0 .922-.247 1.75-.743 2.483-.495.734-1.237 1.317-2.228 1.75-.989.414-2.236.62-3.741.62Z"/><defs><linearGradient id="a" x1="97.999" x2="97.999" y1="-4.334" y2="51.666" gradientUnits="userSpaceOnUse"><stop offset=".076" stop-color="#fff"/><stop offset="1" stop-color="#fff" stop-opacity=".3"/></linearGradient></defs></svg>