<svg width="37" height="37" viewBox="0 0 37 37" fill="none" xmlns="http://www.w3.org/2000/svg">
<path d="M18.1241 0.00213837C16.997 0.0169384 15.8487 0.107238 14.8994 0.270538C12.852 0.622538 12.8745 0.651038 15.1987 0.651338C17.5643 0.651538 18.2968 0.730138 20.0375 1.17084C24.332 2.25814 27.7255 4.76713 29.8242 8.40653C31.1651 10.7325 31.6905 13.9213 31.178 16.6257C30.8929 18.1322 30.1661 19.908 29.2892 21.2411C28.7133 22.1169 27.4508 23.4638 26.5935 24.1174C25.4733 24.9715 23.8057 25.7342 22.4923 25.9932C21.7239 26.1448 19.7743 26.1176 18.9738 25.9442C16.1026 25.322 14.0068 23.5153 13.1296 20.9058C12.3922 18.7126 12.8549 16.3697 14.3285 14.8343C14.5398 14.6141 14.6727 14.4339 14.6235 14.4339C14.4501 14.4339 13.3796 14.9639 12.8443 15.3148C12.0923 15.8077 11.4323 16.4402 10.8394 17.2364C7.78808 21.333 8.83539 27.0274 13.2602 30.3998C15.209 31.885 17.5061 32.7514 20.1768 33.0088C20.9876 33.0869 22.6945 33.0494 23.5681 32.9343C25.9031 32.6265 27.8203 31.9548 29.8617 30.73C33.5001 28.5468 35.8348 25.1854 36.7595 20.7985C37.0172 19.5769 37.0816 16.8728 36.885 15.5299C36.0867 10.0692 32.7696 5.33743 27.7088 2.43923C25.854 1.37714 23.4733 0.550737 21.2227 0.187938C20.3572 0.0484379 19.2511 -0.0125616 18.1241 0.00213837ZM15.9974 2.03694C13.603 1.99654 11.1766 2.50394 8.96979 3.61653C4.09408 6.07463 0.778074 11.0327 0.100074 16.8786C0.0153735 17.6089 -0.0351258 19.556 0.0289742 19.6209C0.0483743 19.6404 0.130374 19.3079 0.211074 18.8817C0.291874 18.4556 0.522675 17.6001 0.724175 16.9807C2.08248 12.8047 4.70558 9.85403 8.34498 8.40823C9.84169 7.81353 12.0694 7.44833 13.511 7.56093C16.3711 7.78443 18.4679 8.54433 20.5021 10.0946C21.6773 10.9902 22.5832 12.0208 23.2977 13.2749C23.6284 13.8555 23.5104 13.7657 23.0764 13.1062C21.5121 10.7295 19.017 9.12133 16.1066 8.61373C10.7538 7.68003 5.46758 10.5577 3.05348 15.7196C2.19028 17.5655 1.77418 19.3177 1.70488 21.3992C1.63648 23.4531 1.88168 24.9301 2.59708 26.7744C4.67128 32.1214 10.1021 36.1513 16.1774 36.8512C16.6128 36.9015 17.1002 36.9578 17.2606 36.9768C17.8687 37.0483 20.5046 36.9434 21.3434 36.8144C23.9259 36.4175 26.4721 35.5261 28.5374 34.2964C30.3231 33.2332 32.4228 31.404 33.6774 29.8184L34.211 29.1442L33.5891 29.6974C31.885 31.2128 29.9336 32.443 28.0093 33.2154C22.7322 35.3334 16.2939 34.2825 12.2672 30.6457C11.0204 29.5198 10.1311 28.3741 9.43779 27.0012C8.59959 25.3408 8.24549 23.9021 8.24299 22.1472C8.23939 19.5354 9.05449 17.4882 10.7954 15.7368C11.5982 14.9293 12.2649 14.4564 13.2924 13.9657C14.5814 13.3505 15.2298 13.2167 16.9272 13.2164C18.0616 13.2162 18.5057 13.2492 18.9271 13.365C21.9016 14.1825 23.9028 16.1975 24.4678 18.944C24.6962 20.0543 24.4966 21.2235 23.8486 22.5705C23.5188 23.2561 23.3067 23.5609 22.7225 24.1887C22.3265 24.6142 21.9293 24.9856 21.8397 25.0146C21.7499 25.0432 21.6767 25.0984 21.6767 25.1371C21.6767 25.2432 23.1316 24.8237 23.8594 24.5078C25.0641 23.9849 25.9019 23.4036 26.8905 22.4049C28.4239 20.8561 29.2604 19.3012 29.7272 17.1315C29.9426 16.1302 29.9459 13.7589 29.7333 12.7585C29.3606 11.0057 28.6124 9.27623 27.6142 7.86113C25.0237 4.18823 20.5685 2.11424 15.9974 2.03694Z" fill="#4E5666"/>
</svg>
