<svg width="94" height="31" viewBox="0 0 94 31" fill="none" xmlns="http://www.w3.org/2000/svg">
<path fill-rule="evenodd" clip-rule="evenodd" d="M15.1613 31C23.5346 31 30.3226 24.0604 30.3226 15.5C30.3226 6.93959 23.5346 0 15.1613 0C6.78794 0 0 6.93959 0 15.5C0 24.0604 6.78794 31 15.1613 31ZM22.3629 13.8802C22.3629 14.7748 21.6536 15.5 20.7785 15.5H16.7975C15.9225 15.5 15.2131 16.2252 15.2131 17.1197V21.2428C15.2131 22.1373 14.5037 22.8625 13.6288 22.8625H9.54403C8.669 22.8625 7.95968 22.1373 7.95968 21.2428V17.1197C7.95968 16.2252 8.669 15.5 9.54403 15.5H13.5252C14.4001 15.5 15.1095 14.7748 15.1095 13.8802V9.75725C15.1095 8.86267 15.8188 8.1375 16.6938 8.1375H20.7785C21.6536 8.1375 22.3629 8.86267 22.3629 9.75725V13.8802Z" fill="white"/>
<path d="M41.8603 23.25L38.2671 11.718H41.3145L43.9298 21.111H44.3392L46.9545 11.718H50.0019L46.4087 23.25H41.8603ZM56.9883 23.5755C55.8664 23.5755 54.8582 23.343 53.9636 22.878C53.0691 22.413 52.3641 21.7388 51.8487 20.8553C51.3332 19.9718 51.0754 18.91 51.0754 17.67V17.298C51.0754 16.058 51.3332 14.9963 51.8487 14.1128C52.3641 13.2293 53.0691 12.555 53.9636 12.09C54.8582 11.625 55.8664 11.3925 56.9883 11.3925C58.1103 11.3925 59.1185 11.625 60.013 12.09C60.9075 12.555 61.6125 13.2293 62.128 14.1128C62.6435 14.9963 62.9012 16.058 62.9012 17.298V17.67C62.9012 18.91 62.6435 19.9718 62.128 20.8553C61.6125 21.7388 60.9075 22.413 60.013 22.878C59.1185 23.343 58.1103 23.5755 56.9883 23.5755ZM56.9883 20.9715C57.8677 20.9715 58.5954 20.6848 59.1716 20.1113C59.7477 19.5223 60.0357 18.6853 60.0357 17.6003V17.3678C60.0357 16.2828 59.7477 15.4535 59.1716 14.88C58.6106 14.291 57.8828 13.9965 56.9883 13.9965C56.109 13.9965 55.3812 14.291 54.8051 14.88C54.229 15.4535 53.9409 16.2828 53.9409 17.3678V17.6003C53.9409 18.6853 54.229 19.5223 54.8051 20.1113C55.3812 20.6848 56.109 20.9715 56.9883 20.9715ZM65.5462 23.25V11.718H68.4117V23.25H65.5462ZM66.9789 10.3695C66.4635 10.3695 66.0238 10.199 65.6599 9.85804C65.3112 9.51704 65.1368 9.06754 65.1368 8.50954C65.1368 7.95154 65.3112 7.50204 65.6599 7.16104C66.0238 6.82004 66.4635 6.64954 66.9789 6.64954C67.5096 6.64954 67.9493 6.82004 68.298 7.16104C68.6467 7.50204 68.821 7.95154 68.821 8.50954C68.821 9.06754 68.6467 9.51704 68.298 9.85804C67.9493 10.199 67.5096 10.3695 66.9789 10.3695ZM76.1354 23.5755C75.2409 23.5755 74.3995 23.3508 73.6111 22.9013C72.8379 22.4363 72.2162 21.762 71.7463 20.8785C71.2762 19.995 71.0412 18.9255 71.0412 17.67V17.298C71.0412 16.0425 71.2762 14.973 71.7463 14.0895C72.2162 13.206 72.8379 12.5395 73.6111 12.09C74.3843 11.625 75.2258 11.3925 76.1354 11.3925C76.8177 11.3925 77.3862 11.4778 77.8411 11.6483C78.3111 11.8033 78.6901 12.0048 78.9782 12.2528C79.2663 12.5008 79.4861 12.7643 79.6377 13.0433H80.0471V6.97504H82.9125V23.25H80.0925V21.855H79.6832C79.4254 22.289 79.0237 22.6843 78.4779 23.0408C77.9472 23.3973 77.1664 23.5755 76.1354 23.5755ZM76.9996 21.018C77.879 21.018 78.6143 20.7313 79.2056 20.1578C79.7969 19.5688 80.0925 18.7163 80.0925 17.6003V17.3678C80.0925 16.2518 79.7969 15.407 79.2056 14.8335C78.6295 14.2445 77.8942 13.95 76.9996 13.95C76.1203 13.95 75.385 14.2445 74.7937 14.8335C74.2024 15.407 73.9067 16.2518 73.9067 17.3678V17.6003C73.9067 18.7163 74.2024 19.5688 74.7937 20.1578C75.385 20.7313 76.1203 21.018 76.9996 21.018ZM86.0896 23.25V11.718H88.9096V13.02H89.3189C89.4857 12.555 89.7586 12.214 90.1377 11.997C90.5318 11.78 90.9867 11.6715 91.5022 11.6715H92.8667V14.2755H91.4567C90.7289 14.2755 90.1301 14.477 89.6601 14.88C89.1901 15.2675 88.9551 15.872 88.9551 16.6935V23.25H86.0896Z" fill="white"/>
</svg>
