<svg width="1227" height="631" viewBox="0 0 1227 631" fill="none" xmlns="http://www.w3.org/2000/svg">
<path fill-rule="evenodd" clip-rule="evenodd" d="M694.621 182.413C695.311 181.723 696.089 181.083 696.939 180.495C700.199 175.045 696.498 168.727 687.231 165.639L637.399 149.03C628.132 145.942 616.804 147.25 610.26 151.606C609.799 152.324 609.23 153.032 608.54 153.721L580.133 182.124C573.641 188.616 559.498 190.69 548.651 187.075L548.15 186.909L548.074 186.882L548.022 186.865L499.954 170.844C489.472 167.404 476.402 169.56 470.593 175.368L442.188 203.771C441.498 204.461 440.722 205.1 439.873 205.689C436.612 211.139 440.314 217.457 449.579 220.546L499.413 237.155C508.676 240.243 520.004 238.935 526.548 234.58C527.009 233.861 527.579 233.153 528.269 232.462L556.675 204.06C563.167 197.568 577.314 195.494 588.157 199.109L636.726 215.296C647.228 218.797 660.385 216.649 666.219 210.816L694.621 182.413ZM688.081 164.788C696.915 167.733 701.182 173.661 698.952 179.267C706.246 175.347 717.27 174.517 726.108 177.462L775.935 194.071C784.773 197.016 789.04 202.944 786.806 208.551C794.1 204.631 805.124 203.8 813.962 206.746L863.793 223.355C872.631 226.3 876.894 232.228 874.66 237.835C881.955 233.915 892.982 233.084 901.816 236.029L951.647 252.639C960.485 255.583 964.752 261.511 962.518 267.116C969.813 263.198 980.836 262.367 989.674 265.312L1039.51 281.92C1048.34 284.866 1052.61 290.793 1050.37 296.4C1057.67 292.48 1068.69 291.649 1077.53 294.594L1127.36 311.203C1136.19 314.148 1140.46 320.074 1138.23 325.68C1145.52 321.761 1156.55 320.93 1165.39 323.875L1215.21 340.484C1226.06 344.099 1230.02 352.208 1223.53 358.7L1195.12 387.103C1188.63 393.595 1174.49 395.669 1163.64 392.054L1115.07 375.866C1104.57 372.365 1091.41 374.514 1085.58 380.347L1057.18 408.75C1051.72 414.206 1040.86 416.541 1031.1 415.003C1036.32 418.198 1038.52 422.755 1036.78 427.117C1044.08 423.198 1055.1 422.367 1063.94 425.312L1113.77 441.922C1124.61 445.536 1128.57 453.645 1122.08 460.137L1093.68 488.54C1087.18 495.032 1073.04 497.106 1062.19 493.491L1013.63 477.303C1003.12 473.803 989.971 475.952 984.136 481.785L955.73 510.187C950.272 515.644 939.409 517.979 929.645 516.439C934.874 519.634 937.071 524.192 935.335 528.556C942.629 524.637 953.656 523.806 962.49 526.751L1012.32 543.36C1023.17 546.975 1027.13 555.084 1020.63 561.576L992.232 589.978C985.736 596.47 971.593 598.547 960.746 594.93L912.182 578.742C901.675 575.241 888.523 577.391 882.688 583.224L854.282 611.627C848.828 617.081 837.965 619.419 828.197 617.879C833.426 621.075 835.627 625.63 833.887 629.997C841.181 626.075 852.209 625.245 861.043 628.188L910.874 644.798C921.721 648.415 925.683 656.523 919.187 663.015L890.784 691.417C884.292 697.909 870.145 699.983 859.298 696.37L810.734 680.181C800.228 676.681 787.075 678.83 781.24 684.661L752.838 713.063C747.477 718.424 736.894 720.774 727.267 719.395C732.403 722.687 734.428 727.334 732.399 731.725C739.689 728.044 750.404 727.322 759.029 730.198L808.861 746.807C819.708 750.42 823.666 758.528 817.174 765.02L788.771 793.422C782.275 799.915 768.132 801.992 757.285 798.375L708.721 782.187C698.214 778.686 685.062 780.835 679.227 786.67L650.821 815.072C644.329 821.564 630.186 823.638 619.339 820.021L569.507 803.411C560.44 800.392 556.186 794.225 558.828 788.49C551.538 792.175 540.828 792.897 532.202 790.022L482.369 773.413C473.642 770.506 469.372 764.687 471.421 759.141C464.131 763.191 452.936 764.082 443.987 761.098L394.154 744.489C385.205 741.506 380.943 735.463 383.375 729.793C376.081 733.59 365.217 734.364 356.489 731.457L306.658 714.847C297.823 711.904 293.556 705.977 295.787 700.372C288.494 704.289 277.469 705.119 268.634 702.176L218.802 685.567C210.074 682.656 205.805 676.837 207.854 671.291C200.565 675.341 189.369 676.232 180.419 673.248L130.588 656.639C121.639 653.66 117.377 647.617 119.807 641.947C112.514 645.744 101.65 646.518 92.9224 643.611L43.0906 627.001C34.2543 624.054 29.9877 618.127 32.2216 612.517C24.9279 616.439 13.9022 617.269 5.06625 614.326L-44.7654 597.717C-53.6002 594.769 -57.8668 588.843 -55.636 583.239C-62.9297 587.159 -73.9543 587.989 -82.7895 585.044L-132.621 568.434C-141.35 565.525 -145.619 559.705 -143.569 554.16C-150.858 558.21 -162.054 559.1 -171.003 556.118L-220.835 539.509C-229.67 536.564 -233.936 530.637 -231.706 525.032C-238.999 528.95 -250.024 529.781 -258.859 526.836L-308.691 510.227C-317.527 507.282 -321.794 501.355 -319.56 495.748C-326.854 499.667 -337.877 500.498 -346.715 497.553L-396.547 480.944C-407.39 477.329 -411.352 469.22 -404.86 462.728L-376.457 434.326C-369.961 427.833 -355.818 425.759 -344.971 429.374L-296.404 445.562C-285.901 449.063 -272.746 446.914 -266.913 441.081L-238.508 412.679C-232.905 407.077 -221.605 404.764 -211.644 406.558C-217.281 403.351 -219.705 398.622 -217.904 394.101C-225.197 398.021 -236.223 398.852 -245.059 395.907L-294.891 379.298C-305.736 375.683 -309.695 367.574 -303.205 361.082L-274.8 332.679C-268.307 326.187 -254.162 324.113 -243.316 327.728L-194.749 343.916C-184.245 347.417 -171.091 345.268 -165.257 339.435L-136.852 311.032C-131.396 305.577 -120.537 303.241 -110.773 304.779C-115.997 301.584 -118.195 297.026 -116.457 292.664C-123.751 296.583 -134.776 297.414 -143.612 294.469L-193.444 277.86C-204.289 274.245 -208.25 266.136 -201.758 259.644L-173.353 231.241C-166.86 224.749 -152.715 222.675 -141.869 226.29L-93.3019 242.478C-82.7983 245.978 -69.6436 243.83 -63.8103 237.997L-35.405 209.594C-29.9491 204.138 -19.0889 201.803 -9.32428 203.341C-14.5497 200.146 -16.7487 195.588 -15.0104 191.225C-22.3037 195.144 -33.3295 195.975 -42.165 193.03L-91.9967 176.421C-102.842 172.806 -106.803 164.697 -100.311 158.205L-71.906 129.802C-65.4135 123.31 -51.268 121.236 -40.4227 124.851L8.14508 141.039C18.6483 144.54 31.803 142.391 37.6363 136.558L66.0417 108.155C71.4971 102.7 82.3553 100.364 92.1194 101.902C86.8958 98.7065 84.6986 94.1488 86.4373 89.7863C79.1437 93.7057 68.118 94.5369 59.2821 91.5916L9.45032 74.9828C-1.39499 71.3678 -5.35641 63.2585 1.13608 56.7668L29.541 28.3639C36.0335 21.8721 50.179 19.7982 61.0246 23.4128L109.592 39.6005C120.096 43.1016 133.25 40.9527 139.084 35.1198L167.489 6.71692C173.982 0.225204 188.126 -1.84914 198.972 1.76583L248.803 18.3747C257.64 21.3204 261.907 27.2495 259.672 32.8562C266.965 28.9365 277.991 28.1056 286.828 31.0505L336.659 47.6594C345.494 50.6043 349.76 56.531 347.529 62.1365C354.823 58.2176 365.847 57.3871 374.683 60.332L424.514 76.9408C433.35 79.8861 437.617 85.8141 435.384 91.4204C442.677 87.5006 453.703 86.6698 462.539 89.6151L512.369 106.224C521.203 109.169 525.47 115.096 523.24 120.701C530.534 116.782 541.558 115.951 550.396 118.896L600.227 135.505C609.061 138.45 613.328 144.378 611.094 149.985C618.388 146.065 629.416 145.234 638.25 148.179L688.081 164.788ZM597.745 751.988C594.493 753.118 591.658 754.734 589.597 756.796L561.194 785.198C560.649 785.743 560.176 786.301 559.775 786.866C553.174 791.005 542.123 792.195 533.052 789.172L483.22 772.563C474.056 769.507 470.334 763.296 473.408 757.886C474.159 757.349 474.849 756.768 475.469 756.146L503.876 727.743C509.706 721.913 522.863 719.764 533.365 723.264L581.934 739.453C592.781 743.065 606.924 740.992 613.416 734.5L641.822 706.098C642.576 705.344 643.186 704.57 643.663 703.78C649.722 699.61 660.1 698.126 669.07 700.464C669.84 700.805 670.662 701.121 671.52 701.406L721.352 718.015C721.994 718.232 722.647 718.424 723.313 718.597C730.972 722.005 733.686 727.884 730.318 732.924C729.287 733.594 728.357 734.336 727.547 735.146L699.141 763.548C697.561 765.132 695.444 766.44 692.985 767.442C686.525 769.672 678.149 769.908 670.999 767.526L622.43 751.338C614.543 748.708 604.911 749.089 597.745 751.988ZM560.91 787.295C557.208 792.837 560.861 799.397 570.357 802.561L620.189 819.17C630.695 822.671 643.848 820.522 649.682 814.691L678.088 786.289C684.581 779.797 698.724 777.724 709.571 781.336L758.135 797.525C768.641 801.025 781.794 798.876 787.628 793.046L816.035 764.639C821.865 758.809 818.513 751.158 808.011 747.657L758.179 731.048C749.105 728.024 738.053 729.215 731.453 733.353C731.052 733.919 730.583 734.476 730.037 735.022L701.631 763.424C699.57 765.485 696.739 767.097 693.491 768.228C686.325 771.131 676.689 771.512 668.797 768.882L620.233 752.693C613.083 750.312 604.706 750.544 598.246 752.778C595.788 753.776 593.671 755.087 592.091 756.667L563.685 785.07C562.87 785.884 561.94 786.626 560.91 787.295ZM664.98 683.782C664.29 684.472 663.516 685.114 662.666 685.703C659.711 690.643 662.478 696.301 669.932 699.614C670.594 699.79 671.247 699.983 671.889 700.195L721.721 716.804C722.583 717.093 723.401 717.41 724.175 717.751C734.3 720.389 746.222 718.16 751.695 712.686L780.102 684.284C786.594 677.792 800.737 675.714 811.584 679.331L860.152 695.519C870.654 699.02 883.807 696.871 889.642 691.036L918.048 662.634C923.883 656.803 920.526 649.152 910.024 645.652L860.193 629.042C850.926 625.951 839.601 627.262 833.053 631.617C832.596 632.335 832.023 633.044 831.333 633.734L802.926 662.137C796.434 668.629 782.291 670.702 771.444 667.085L722.88 650.901C712.374 647.4 699.221 649.545 693.386 655.38L664.98 683.782ZM829.56 633.141C830.25 632.451 831.028 631.813 831.874 631.224C835.134 625.774 831.433 619.455 822.17 616.367L772.338 599.758C763.071 596.67 751.739 597.977 745.195 602.336C744.738 603.054 744.164 603.76 743.479 604.449L715.072 632.852C708.58 639.344 694.433 641.417 683.59 637.8L683.269 637.696C683.165 637.664 683.061 637.628 682.957 637.592L634.713 621.516C624.263 618.155 611.307 620.321 605.528 626.095L577.126 654.498C576.436 655.187 575.662 655.825 574.812 656.414C571.548 661.864 575.249 668.184 584.516 671.275L634.348 687.885C643.615 690.972 654.939 689.665 661.487 685.31C661.944 684.588 662.518 683.883 663.208 683.193L691.614 654.79C698.106 648.298 712.249 646.221 723.096 649.838L771.665 666.026C782.167 669.527 795.319 667.378 801.154 661.543L829.56 633.141ZM665.978 698.82C661.014 695.636 658.957 691.189 660.653 686.93C654.582 690.19 645.933 691.313 638.109 689.902C643.667 693.061 646.105 697.697 644.457 702.156C650.207 698.96 658.388 697.729 665.978 698.82ZM767.791 597.608C762.562 594.413 760.361 589.853 762.097 585.49C756.234 588.642 747.958 589.797 740.351 588.598C745.572 591.794 747.77 596.353 746.033 600.716C751.896 597.56 760.176 596.405 767.791 597.608ZM933.322 529.784C932.472 530.372 931.698 531.012 931.008 531.703L902.602 560.105C896.767 565.938 883.615 568.087 873.109 564.586L824.544 548.398C813.697 544.784 799.554 546.858 793.058 553.349L764.655 581.752C763.962 582.443 763.392 583.152 762.931 583.872C756.387 588.225 745.059 589.532 735.796 586.445L735.487 586.341C735.379 586.304 735.27 586.268 735.162 586.232L685.647 569.729C676.617 566.604 673.036 560.368 676.256 554.98C677.106 554.392 677.884 553.752 678.574 553.063L706.976 524.66C712.811 518.827 725.963 516.678 736.469 520.179L785.034 536.366C795.881 539.981 810.028 537.907 816.52 531.415L844.923 503.013C845.612 502.323 846.186 501.615 846.643 500.897C853.191 496.541 864.519 495.232 873.782 498.321L923.614 514.93C932.881 518.017 936.582 524.334 933.322 529.784ZM764.11 584.264C760.854 589.713 764.555 596.029 773.818 599.116L823.65 615.725C834.156 619.226 847.308 617.077 853.143 611.246L881.546 582.843C888.042 576.351 902.185 574.277 913.032 577.892L961.596 594.08C972.102 597.58 985.255 595.431 991.089 589.601L1019.5 561.196C1025.33 555.363 1021.97 547.712 1011.47 544.211L961.64 527.602C952.373 524.514 941.049 525.822 934.501 530.176C934.044 530.896 933.47 531.605 932.781 532.295L904.374 560.698C897.882 567.19 883.739 569.264 872.892 565.649L824.323 549.461C813.821 545.96 800.665 548.109 794.834 553.942L766.428 582.345C765.738 583.035 764.96 583.675 764.11 584.264ZM632.656 688.731C641.823 691.786 645.544 698.002 642.468 703.411C641.718 703.948 641.028 704.526 640.407 705.147L612 733.55C606.17 739.384 593.013 741.534 582.511 738.033L533.943 721.845C523.1 718.228 508.953 720.301 502.461 726.793L474.055 755.196C473.301 755.95 472.688 756.727 472.211 757.513C465.704 761.997 454.214 763.372 444.837 760.248L395.005 743.639C385.628 740.511 381.949 734.079 385.42 728.586C386.362 727.952 387.219 727.258 387.972 726.504L416.378 698.102C419.239 695.243 423.861 693.266 429.068 692.412C434.216 691.714 439.851 692.095 444.878 693.771L493.446 709.959C498.98 711.804 505.372 712.165 511.17 711.218C517.125 710.404 522.55 708.227 525.919 704.859L554.325 676.456C554.943 675.835 555.468 675.201 555.901 674.555C562.477 670.313 573.661 669.07 582.824 672.121L632.656 688.731ZM579.063 670.104C573.421 666.896 570.995 662.165 572.799 657.641C567.065 660.725 559.021 661.896 551.55 660.825C556.603 664.061 558.648 668.609 556.791 672.935C562.842 669.784 571.356 668.713 579.063 670.104ZM635.563 620.662L635.242 620.553C624.395 616.94 610.248 619.014 603.756 625.506L575.353 653.908C574.664 654.598 574.094 655.304 573.633 656.021C567.546 660.076 557.317 661.491 548.459 659.181C547.689 658.84 546.871 658.528 546.009 658.239L496.181 641.63C495.539 641.417 494.886 641.225 494.224 641.048C486.77 637.736 483.998 632.082 486.951 627.138C487.802 626.548 488.579 625.907 489.27 625.217L517.674 596.815C523.509 590.984 536.661 588.835 547.167 592.335L595.732 608.52C606.579 612.137 620.726 610.063 627.218 603.571L655.621 575.168C656.314 574.477 656.884 573.768 657.345 573.047C663.889 568.693 675.217 567.386 684.48 570.474L684.793 570.578C684.837 570.593 684.877 570.607 684.921 570.622C684.986 570.644 685.05 570.666 685.114 570.687L734.633 587.191C743.663 590.318 747.244 596.554 744.016 601.943C743.17 602.533 742.392 603.17 741.706 603.86L713.3 632.262C707.521 638.037 694.565 640.202 684.115 636.842L635.872 620.762C635.812 620.746 635.755 620.726 635.695 620.706C635.651 620.69 635.607 620.678 635.563 620.662ZM863.545 484.051C861.808 488.416 864.01 492.974 869.239 496.169C861.624 494.968 853.344 496.123 847.481 499.276C849.217 494.911 847.016 490.352 841.787 487.157C849.402 488.358 857.678 487.203 863.545 484.051ZM843.15 502.421C843.84 501.732 844.618 501.092 845.464 500.504C848.728 495.054 845.027 488.736 835.76 485.647L785.928 469.039C776.661 465.95 765.333 467.259 758.789 471.614C758.332 472.332 757.758 473.04 757.069 473.73L728.662 502.132C722.17 508.624 708.027 510.698 697.18 507.083L696.711 506.927L696.638 506.903L696.546 506.873L648.451 490.843C637.977 487.417 624.925 489.574 619.122 495.377L590.716 523.78C590.026 524.469 589.252 525.109 588.402 525.698C585.162 531.11 588.791 537.378 597.913 540.489L647.308 556.952C647.372 556.974 647.436 556.996 647.505 557.018L647.938 557.163C657.205 560.251 668.533 558.943 675.081 554.588C675.538 553.869 676.108 553.161 676.797 552.471L705.204 524.068C711.696 517.576 725.843 515.502 736.686 519.117L785.254 535.305C795.76 538.806 808.913 536.657 814.748 530.824L843.15 502.421ZM679.929 568.321C674.704 565.127 672.507 560.57 674.243 556.208C668.38 559.36 660.104 560.514 652.493 559.315C657.714 562.509 659.915 567.066 658.179 571.427C664.042 568.277 672.318 567.123 679.929 568.321ZM428.999 691.51C423.041 692.324 417.613 694.501 414.246 697.869L385.84 726.272C385.22 726.893 384.695 727.527 384.263 728.173C377.686 732.415 366.504 733.658 357.34 730.607L307.508 713.997C298.244 710.91 294.542 704.594 297.8 699.144C298.65 698.555 299.427 697.913 300.117 697.224L328.522 668.821C334.355 662.987 347.509 660.837 358.014 664.342L406.581 680.526C417.426 684.143 431.571 682.07 438.064 675.578L466.469 647.175C467.159 646.482 467.732 645.776 468.19 645.054C474.279 641.004 484.506 639.589 493.362 641.898C494.132 642.239 494.95 642.552 495.812 642.841L545.644 659.45C546.281 659.662 546.935 659.855 547.597 660.031C555.151 663.388 557.898 669.154 554.746 674.142C553.804 674.776 552.946 675.47 552.192 676.224L523.789 704.626C520.926 707.485 516.307 709.462 511.102 710.316C505.953 711.014 500.315 710.633 495.287 708.957L446.72 692.773C441.187 690.928 434.795 690.563 428.999 691.51ZM653.848 574.574C654.538 573.884 655.316 573.244 656.166 572.655C659.398 567.243 655.773 560.978 646.65 557.867L597.256 541.405L597.144 541.366L597.063 541.339L596.626 541.194C587.359 538.105 576.031 539.413 569.487 543.768C569.03 544.488 568.456 545.196 567.767 545.886L539.36 574.289C532.868 580.781 518.725 582.855 507.878 579.24L459.311 563.053C448.807 559.552 435.652 561.701 429.819 567.533L401.414 595.936C400.724 596.626 399.947 597.268 399.097 597.853C396.143 602.797 398.913 608.455 406.366 611.768C407.028 611.94 407.682 612.137 408.323 612.349L458.155 628.958C459.016 629.247 459.834 629.56 460.607 629.901C469.461 632.206 479.684 630.795 485.773 626.745C486.232 626.027 486.805 625.317 487.496 624.624L515.902 596.221C522.394 589.729 536.537 587.656 547.384 591.269L595.953 607.457C606.455 610.958 619.611 608.812 625.442 602.978L653.848 574.574ZM490.268 640.254C485.303 637.07 483.244 632.627 484.939 628.365C479.206 631.444 471.166 632.615 463.698 631.549C468.663 634.729 470.721 639.176 469.025 643.434C474.759 640.355 482.799 639.184 490.268 640.254ZM759.623 469.993C765.489 466.841 773.77 465.686 781.385 466.888C776.156 463.693 773.954 459.135 775.691 454.771C769.824 457.922 761.548 459.076 753.937 457.877C759.162 461.072 761.363 465.63 759.623 469.993ZM586.389 526.926C584.648 531.289 586.85 535.846 592.075 539.042C584.464 537.842 576.188 538.997 570.321 542.148C572.057 537.784 569.86 533.226 564.631 530.032C572.242 531.232 580.522 530.077 586.389 526.926ZM649.301 489.991L648.832 489.835C637.985 486.22 623.842 488.294 617.35 494.786L588.943 523.189C588.254 523.878 587.68 524.586 587.223 525.305C580.679 529.66 569.351 530.968 560.084 527.88L510.252 511.271C500.989 508.183 497.288 501.867 500.544 496.417C501.394 495.829 502.172 495.188 502.862 494.498L531.268 466.095C537.099 460.263 550.255 458.113 560.757 461.615L609.326 477.802C620.169 481.417 634.316 479.343 640.808 472.851L669.214 444.448C669.904 443.758 670.478 443.049 670.935 442.33C677.479 437.975 688.807 436.667 698.074 439.755L698.523 439.906L698.624 439.94L698.704 439.966L748.086 456.426C757.217 459.537 760.85 465.807 757.61 471.221C756.76 471.809 755.986 472.449 755.296 473.139L726.89 501.542C721.087 507.345 708.035 509.502 697.561 506.076L649.465 490.045L649.385 490.019L649.301 489.991ZM459.744 630.751C467.197 634.063 469.967 639.721 467.012 644.661C466.162 645.251 465.386 645.892 464.696 646.582L436.291 674.984C430.457 680.819 417.303 682.964 406.799 679.464L358.232 663.279C347.386 659.663 333.241 661.736 326.748 668.228L298.343 696.63C297.653 697.32 297.08 698.03 296.622 698.752C290.076 703.106 278.749 704.414 269.485 701.326L219.652 684.717C210.488 681.661 206.767 675.446 209.842 670.036C210.592 669.499 211.282 668.917 211.902 668.3L240.308 639.897C246.141 634.063 259.295 631.914 269.799 635.414L318.366 651.602C329.212 655.219 343.357 653.142 349.85 646.65L378.255 618.248C379.008 617.498 379.62 616.72 380.098 615.934C386.155 611.76 396.532 610.28 405.503 612.618C406.275 612.959 407.093 613.271 407.955 613.56L457.787 630.169C458.428 630.382 459.081 630.578 459.744 630.751ZM397.085 599.084C395.389 603.343 397.447 607.79 402.412 610.97C394.82 609.883 386.639 611.114 380.889 614.306C382.536 609.851 380.1 605.215 374.547 602.055C382.37 603.467 391.018 602.344 397.085 599.084ZM568.308 543.376C567.458 543.964 566.684 544.604 565.994 545.294L537.588 573.697C531.753 579.53 518.601 581.679 508.099 578.178L459.529 561.99C448.684 558.375 434.538 560.449 428.046 566.941L399.64 595.343C398.95 596.033 398.378 596.742 397.919 597.464C391.373 601.819 380.046 603.126 370.782 600.038L320.95 583.428C311.683 580.339 307.982 574.02 311.244 568.57C312.093 567.981 312.869 567.342 313.558 566.652L341.963 538.25C347.75 532.463 360.742 530.302 371.203 533.686L419.39 549.747C419.475 549.775 419.56 549.803 419.645 549.831L420.022 549.956C430.868 553.571 445.013 551.497 451.506 545.005L479.911 516.603C480.6 515.914 481.171 515.206 481.629 514.489C488.175 510.132 499.505 508.824 508.768 511.912L558.6 528.521C567.867 531.609 571.568 537.926 568.308 543.376ZM748.756 455.514C748.816 455.535 748.88 455.555 748.94 455.576L749.385 455.725C758.652 458.813 769.977 457.505 776.525 453.151C776.982 452.431 777.555 451.722 778.245 451.031L806.652 422.629C813.144 416.136 827.291 414.062 838.134 417.677L886.702 433.865C897.204 437.366 910.361 435.217 916.192 429.384L944.598 400.982C945.288 400.291 946.066 399.651 946.916 399.063C950.172 393.613 946.471 387.297 937.208 384.209L887.376 367.6C878.109 364.512 866.781 365.82 860.237 370.175C859.779 370.894 859.206 371.602 858.516 372.292L830.11 400.695C823.618 407.187 809.475 409.261 798.628 405.646L750.059 389.459C739.557 385.957 726.4 388.107 720.57 393.94L692.163 422.342C691.474 423.032 690.696 423.673 689.846 424.261C686.61 429.676 690.243 435.947 699.377 439.056L748.756 455.514ZM671.769 440.709C677.635 437.558 685.912 436.404 693.523 437.603C688.298 434.409 686.096 429.852 687.833 425.489C681.97 428.64 673.693 429.794 666.079 428.595C671.308 431.789 673.505 436.347 671.769 440.709ZM660.048 427.083C669.315 430.171 673.016 436.487 669.756 441.937C668.906 442.526 668.132 443.166 667.442 443.856L639.036 472.259C633.201 478.092 620.048 480.24 609.542 476.74L560.978 460.552C550.131 456.937 535.984 459.011 529.492 465.503L501.089 493.906C500.395 494.596 499.826 495.305 499.365 496.025C492.82 500.379 481.493 501.687 472.229 498.599L471.863 498.477C471.775 498.447 471.686 498.416 471.596 498.387L422.134 481.9C413.061 478.781 409.46 472.531 412.69 467.133C413.539 466.544 414.316 465.905 415.005 465.215L443.41 436.812C449.218 431.005 462.284 428.849 472.765 432.286L520.838 448.309C520.882 448.324 520.93 448.34 520.974 448.355L521.468 448.519C532.315 452.134 546.462 450.06 552.954 443.568L581.356 415.165C582.046 414.476 582.62 413.769 583.077 413.05C589.621 408.694 600.949 407.385 610.216 410.474L660.048 427.083ZM476.781 500.751C484.392 501.95 492.667 500.795 498.531 497.645C496.794 502.008 498.996 506.566 504.221 509.761C496.61 508.56 488.331 509.715 482.465 512.867C484.204 508.504 482.006 503.946 476.781 500.751ZM1034.77 428.345C1033.92 428.934 1033.15 429.574 1032.45 430.264L1004.05 458.666C998.215 464.499 985.062 466.648 974.556 463.147L925.992 446.96C915.145 443.345 900.998 445.419 894.506 451.911L866.103 480.313C865.409 481.003 864.84 481.712 864.379 482.431C857.835 486.786 846.507 488.093 837.244 485.006L787.412 468.397C778.149 465.309 774.444 458.993 777.7 453.544C778.554 452.955 779.328 452.315 780.018 451.625L808.424 423.222C814.258 417.389 827.411 415.24 837.917 418.741L886.482 434.929C897.329 438.543 911.472 436.469 917.968 429.977L946.37 401.575C947.06 400.884 947.634 400.175 948.095 399.455C954.639 395.101 965.967 393.793 975.23 396.881L975.683 397.031C975.743 397.051 975.803 397.072 975.864 397.092L1025.24 413.551C1034.38 416.661 1038.01 422.931 1034.77 428.345ZM865.558 482.824C862.302 488.274 866.003 494.591 875.266 497.679L925.098 514.288C935.6 517.789 948.756 515.64 954.591 509.807L982.993 481.404C989.485 474.912 1003.63 472.838 1014.48 476.453L1063.04 492.641C1073.55 496.141 1086.7 493.992 1092.54 488.16L1120.94 459.757C1126.77 453.924 1123.42 446.273 1112.92 442.772L1063.09 426.163C1053.82 423.075 1042.49 424.383 1035.95 428.738C1035.49 429.457 1034.92 430.165 1034.23 430.855L1005.82 459.258C999.33 465.75 985.183 467.824 974.34 464.209L925.771 448.021C915.269 444.52 902.113 446.669 896.282 452.502L867.875 480.905C867.186 481.595 866.408 482.235 865.558 482.824ZM1025.91 412.639C1025.98 412.66 1026.04 412.681 1026.1 412.701L1026.55 412.851C1037.05 416.351 1050.2 414.202 1056.03 408.37L1084.44 379.967C1090.93 373.475 1105.08 371.401 1115.92 375.016L1164.49 391.203C1174.99 394.704 1188.15 392.555 1193.98 386.723L1222.39 358.32C1228.22 352.487 1224.87 344.836 1214.36 341.335L1164.53 324.726C1155.27 321.638 1143.94 322.945 1137.4 327.3C1136.94 328.02 1136.37 328.728 1135.68 329.419L1107.27 357.821C1100.78 364.313 1086.63 366.387 1075.79 362.773L1027.22 346.585C1016.71 343.084 1003.56 345.233 997.726 351.066L969.323 379.469C968.634 380.159 967.856 380.799 967.006 381.388C963.77 386.802 967.403 393.072 976.533 396.181L1025.91 412.639ZM948.929 397.835C954.791 394.684 963.068 393.529 970.679 394.729C965.454 391.535 963.256 386.978 964.993 382.616C959.126 385.767 950.849 386.921 943.239 385.721C948.464 388.915 950.665 393.473 948.929 397.835ZM859.058 369.783C858.208 370.371 857.434 371.011 856.744 371.701L828.337 400.104C822.503 405.937 809.35 408.086 798.844 404.585L750.28 388.397C739.433 384.782 725.286 386.856 718.793 393.348L690.391 421.751C689.701 422.441 689.128 423.149 688.671 423.869C682.123 428.223 670.794 429.531 661.531 426.443L611.7 409.834C602.433 406.745 598.731 400.426 601.996 394.976C602.842 394.387 603.62 393.748 604.309 393.058L632.712 364.655C638.498 358.87 651.49 356.708 661.948 360.091L710.14 376.153C710.224 376.182 710.312 376.21 710.397 376.238L710.774 376.362C721.616 379.977 735.764 377.903 742.256 371.411L770.662 343.008C771.348 342.32 771.921 341.613 772.379 340.894C778.923 336.538 790.255 335.23 799.518 338.318L849.35 354.927C858.617 358.015 862.318 364.333 859.058 369.783ZM861.071 368.555C862.807 364.191 860.609 359.634 855.385 356.439C862.995 357.638 871.272 356.484 877.139 353.332C875.398 357.696 877.6 362.254 882.825 365.449C875.214 364.249 866.937 365.403 861.071 368.555ZM789.28 324.051C787.544 328.414 789.746 332.972 794.971 336.166C787.356 334.967 779.079 336.121 773.217 339.273C774.953 334.91 772.755 330.352 767.531 327.157C775.141 328.356 783.418 327.202 789.28 324.051ZM662.422 359.114L662.799 359.24C662.883 359.267 662.971 359.296 663.055 359.324L711.247 375.386C721.705 378.768 734.697 376.607 740.483 370.822L768.886 342.419C769.576 341.73 770.354 341.09 771.2 340.502C774.432 335.104 770.835 328.855 761.764 325.734L712.297 309.246L712.189 309.211L712.109 309.183L712.025 309.155L711.664 309.034C702.397 305.946 691.069 307.255 684.524 311.61C684.067 312.329 683.494 313.036 682.804 313.725L654.398 342.128C647.906 348.62 633.762 350.694 622.916 347.079L622.414 346.912C622.37 346.898 622.326 346.883 622.286 346.869L574.223 330.849C563.737 327.408 550.668 329.564 544.858 335.373L516.451 363.775C515.762 364.465 514.988 365.105 514.138 365.693C510.877 371.144 514.579 377.462 523.846 380.55L573.677 397.159C582.94 400.247 594.268 398.939 600.817 394.583C601.274 393.865 601.847 393.158 602.533 392.468L630.939 364.066C637.432 357.574 651.579 355.5 662.422 359.114ZM605.669 408.322C600.44 405.127 598.242 400.568 599.979 396.204C594.116 399.356 585.836 400.511 578.225 399.31C583.45 402.505 585.651 407.065 583.915 411.429C589.777 408.277 598.054 407.122 605.669 408.322ZM1136.22 326.907C1135.37 327.496 1134.59 328.136 1133.9 328.826L1105.5 357.229C1099.66 363.062 1086.51 365.211 1076 361.71L1027.44 345.522C1016.59 341.907 1002.45 343.982 995.953 350.473L967.547 378.876C966.857 379.567 966.284 380.276 965.827 380.996C959.278 385.35 947.954 386.657 938.691 383.569L888.86 366.96C879.593 363.872 875.891 357.554 879.152 352.104C880.002 351.516 880.776 350.876 881.465 350.186L909.872 321.784C915.702 315.951 928.859 313.802 939.361 317.303L987.93 333.49C998.776 337.105 1012.92 335.031 1019.41 328.539L1047.82 300.136C1048.51 299.447 1049.08 298.739 1049.54 298.02C1056.08 293.665 1067.41 292.356 1076.68 295.444L1126.51 312.053C1135.77 315.141 1139.47 321.458 1136.22 326.907ZM1038.65 282.771C1047.92 285.859 1051.62 292.178 1048.36 297.628C1047.51 298.216 1046.74 298.856 1046.05 299.545L1017.64 327.948C1011.81 333.781 998.652 335.93 988.15 332.429L939.582 316.241C928.735 312.626 914.592 314.7 908.099 321.192L879.693 349.595C879.003 350.285 878.43 350.993 877.973 351.712C871.428 356.067 860.1 357.375 850.833 354.287L801.002 337.678C791.739 334.59 788.037 328.274 791.293 322.824C792.144 322.235 792.922 321.595 793.611 320.904L822.018 292.502C827.848 286.669 841.005 284.52 851.507 288.02L900.075 304.208C910.918 307.823 925.066 305.749 931.558 299.257L959.964 270.854C960.654 270.164 961.223 269.456 961.684 268.737C968.229 264.382 979.557 263.074 988.82 266.162L1038.65 282.771ZM960.505 268.344C959.655 268.933 958.877 269.573 958.188 270.263L929.785 298.666C923.951 304.498 910.798 306.647 900.292 303.146L851.723 286.959C840.88 283.344 826.733 285.418 820.241 291.91L791.835 320.313C791.145 321.003 790.576 321.711 790.115 322.431C783.57 326.785 772.242 328.093 762.979 325.005L762.618 324.885C762.526 324.853 762.438 324.823 762.346 324.792L712.883 308.306C703.808 305.185 700.211 298.935 703.439 293.537C704.29 292.949 705.063 292.309 705.753 291.62L734.16 263.218C739.95 257.429 752.95 255.268 763.412 258.658L811.588 274.715C811.668 274.742 811.748 274.768 811.828 274.794L812.217 274.924C823.064 278.539 837.207 276.465 843.703 269.973L872.106 241.57C872.796 240.882 873.365 240.175 873.826 239.457C880.371 235.1 891.699 233.791 900.966 236.88L950.797 253.489C960.064 256.577 963.766 262.894 960.505 268.344ZM763.869 257.677L764.262 257.807C764.343 257.833 764.423 257.859 764.503 257.886L812.675 273.943C823.141 277.333 836.141 275.172 841.927 269.383L870.334 240.981C871.023 240.292 871.797 239.652 872.647 239.064C875.911 233.613 872.21 227.294 862.943 224.205L813.112 207.596C803.845 204.508 792.516 205.816 785.968 210.173C785.511 210.891 784.942 211.598 784.252 212.287L755.845 240.689C749.353 247.181 735.21 249.255 724.363 245.64L723.986 245.514C723.902 245.487 723.814 245.459 723.73 245.431L675.546 229.37C665.084 225.986 652.092 228.147 646.306 233.934L617.899 262.336C617.209 263.026 616.435 263.666 615.585 264.254C612.341 269.67 615.978 275.944 625.117 279.053L674.491 295.509L674.588 295.543L674.668 295.57L675.121 295.721C684.388 298.809 695.716 297.501 702.264 293.145C702.722 292.427 703.291 291.719 703.981 291.03L732.387 262.628C738.879 256.136 753.026 254.062 763.869 257.677ZM707.113 306.882C701.888 303.686 699.69 299.129 701.426 294.766C695.564 297.917 687.283 299.072 679.672 297.873C684.897 301.068 687.099 305.626 685.359 309.989C691.225 306.838 699.502 305.683 707.113 306.882ZM378.901 615.561C378.15 616.102 377.461 616.68 376.84 617.301L348.435 645.704C342.602 651.534 329.447 653.684 318.944 650.183L270.376 633.995C259.531 630.382 245.385 632.455 238.893 638.947L210.488 667.35C209.734 668.103 209.122 668.877 208.644 669.663C202.137 674.146 190.647 675.526 181.27 672.398L131.439 655.789C122.062 652.665 118.383 646.233 121.852 640.74C122.795 640.106 123.652 639.412 124.405 638.658L152.811 610.256C155.677 607.389 160.31 605.412 165.528 604.558C170.669 603.868 176.293 604.249 181.311 605.921L229.879 622.109C235.404 623.95 241.785 624.315 247.574 623.372C253.542 622.562 258.98 620.385 262.353 617.009L290.758 588.606C291.378 587.989 291.903 587.351 292.336 586.709C298.912 582.466 310.094 581.22 319.259 584.275L369.09 600.885C378.255 603.94 381.976 610.152 378.901 615.561ZM371.673 532.709L372.05 532.834C372.136 532.862 372.221 532.89 372.306 532.918L420.493 548.979C430.954 552.363 443.945 550.202 449.732 544.416L478.137 516.013C478.827 515.323 479.603 514.684 480.451 514.096C483.683 508.697 480.083 502.446 471.009 499.327L421.546 482.84C421.457 482.81 421.368 482.78 421.279 482.75L420.914 482.628C411.648 479.54 400.319 480.849 393.773 485.205C393.315 485.923 392.744 486.63 392.055 487.319L363.65 515.721C357.157 522.213 343.012 524.287 332.166 520.672L331.79 520.547C331.705 520.52 331.62 520.491 331.535 520.463L283.347 504.402C272.886 501.018 259.894 503.179 254.108 508.966L225.703 537.369C225.013 538.058 224.237 538.697 223.389 539.286C220.43 544.228 223.198 549.885 230.65 553.199C231.314 553.374 231.969 553.569 232.612 553.783L282.443 570.392C283.307 570.68 284.127 570.996 284.901 571.338C293.755 573.643 303.979 572.228 310.066 568.177C310.524 567.459 311.095 566.751 311.785 566.063L340.19 537.66C346.682 531.168 360.828 529.094 371.673 532.709ZM315.493 582.255C309.854 579.048 307.429 574.319 309.23 569.798C303.497 572.879 295.457 574.052 287.989 572.982C293.037 576.217 295.079 580.761 293.224 585.087C299.275 581.937 307.785 580.867 315.493 582.255ZM410.677 468.361C408.939 472.724 411.137 477.281 416.362 480.476C408.75 479.277 400.474 480.432 394.61 483.583C396.348 479.221 394.151 474.664 388.927 471.468C396.538 472.667 404.813 471.512 410.677 468.361ZM473.614 431.435L473.12 431.27C462.275 427.656 448.13 429.73 441.637 436.221L413.232 464.624C412.542 465.314 411.971 466.022 411.513 466.74C404.966 471.096 393.638 472.404 384.373 469.316L384.081 469.219C383.969 469.179 383.855 469.141 383.741 469.103L334.208 452.593C325.185 449.465 321.611 443.231 324.837 437.845C325.685 437.258 326.46 436.618 327.15 435.93L355.555 407.527C361.317 401.766 374.221 399.598 384.659 402.92L432.982 419.026C433.112 419.069 433.243 419.112 433.374 419.153L433.613 419.233C444.459 422.848 458.604 420.774 465.097 414.282L493.502 385.88C494.192 385.192 494.761 384.485 495.219 383.768C501.763 379.411 513.095 378.102 522.362 381.191L572.194 397.8C581.461 400.889 585.162 407.207 581.898 412.657C581.052 413.246 580.274 413.885 579.584 414.575L551.181 442.977C545.371 448.785 532.307 450.94 521.825 447.503L473.752 431.481C473.706 431.465 473.66 431.45 473.614 431.435ZM574.568 329.831L575.069 329.998C575.113 330.012 575.157 330.027 575.201 330.041L623.264 346.061C633.746 349.502 646.815 347.347 652.625 341.538L681.032 313.135C681.721 312.445 682.495 311.806 683.346 311.218C686.586 305.802 682.953 299.529 673.818 296.42L624.439 279.962L624.375 279.941L624.315 279.92L624.263 279.903L623.81 279.751C614.543 276.663 603.211 277.971 596.666 282.328C596.209 283.046 595.636 283.753 594.95 284.441L566.544 312.844C560.051 319.337 545.904 321.41 535.061 317.796L534.68 317.668C534.596 317.641 534.512 317.614 534.428 317.586L486.246 301.526C475.783 298.141 462.789 300.302 457.002 306.088L428.596 334.491C427.907 335.181 427.131 335.82 426.282 336.409C423.052 341.806 426.65 348.056 435.72 351.176L485.188 367.664L485.24 367.681L485.319 367.708C485.366 367.724 485.413 367.739 485.459 367.756L485.82 367.876C495.086 370.964 506.414 369.656 512.959 365.3C513.42 364.582 513.989 363.874 514.679 363.185L543.085 334.782C549.577 328.29 563.721 326.216 574.568 329.831ZM517.815 379.04C512.586 375.844 510.384 371.285 512.125 366.921C506.258 370.072 497.985 371.227 490.373 370.028C495.599 373.224 497.797 377.783 496.057 382.146C501.923 378.994 510.2 377.839 517.815 379.04ZM613.572 265.482C611.832 269.846 614.029 274.404 619.258 277.599C611.643 276.4 603.367 277.554 597.504 280.706C599.241 276.343 597.043 271.784 591.818 268.589C599.429 269.788 607.706 268.633 613.572 265.482ZM676.392 228.518L676.015 228.393C665.168 224.778 651.025 226.852 644.529 233.344L616.127 261.746C615.437 262.436 614.864 263.143 614.406 263.861C607.862 268.217 596.534 269.525 587.267 266.437L586.806 266.283C586.75 266.264 586.69 266.245 586.633 266.225L537.271 249.772C528.128 246.665 524.487 240.39 527.727 234.973C528.577 234.384 529.355 233.744 530.045 233.054L558.448 204.651C564.282 198.819 577.435 196.67 587.941 200.171L636.505 216.358C647.352 219.973 661.499 217.899 667.991 211.407L696.394 183.004C697.088 182.314 697.657 181.606 698.114 180.887C704.662 176.532 715.991 175.224 725.254 178.312L775.085 194.921C784.352 198.01 788.053 204.329 784.793 209.78C783.943 210.368 783.169 211.008 782.48 211.697L754.073 240.099C748.287 245.886 735.294 248.047 724.833 244.663L676.645 228.602C676.561 228.574 676.476 228.546 676.392 228.518ZM284.037 572.187C291.587 575.545 294.329 581.307 291.179 586.296C290.236 586.926 289.38 587.624 288.626 588.374L260.221 616.776C257.356 619.643 252.724 621.62 247.508 622.474C242.365 623.168 236.74 622.783 231.72 621.111L183.153 604.923C177.629 603.082 171.25 602.717 165.462 603.659C159.492 604.469 154.052 606.647 150.678 610.023L122.273 638.426C121.653 639.047 121.128 639.681 120.695 640.326C114.118 644.565 102.937 645.812 93.7731 642.757L43.9411 626.147C34.6745 623.06 30.9729 616.74 34.2358 611.29C35.0843 610.701 35.8599 610.063 36.5492 609.374L64.9543 580.971C70.7447 575.181 83.7487 573.021 94.2133 576.414L142.382 592.468C142.46 592.496 142.539 592.52 142.617 592.544L143.013 592.676C153.859 596.293 168.004 594.22 174.496 587.728L202.902 559.324C203.59 558.635 204.161 557.928 204.619 557.211C210.706 553.159 220.931 551.743 229.786 554.049C230.561 554.39 231.38 554.707 232.244 554.994L282.075 571.604C282.719 571.818 283.373 572.012 284.037 572.187ZM221.374 540.514C219.677 544.775 221.734 549.223 226.698 552.405C219.229 551.335 211.19 552.507 205.456 555.589C207.154 551.328 205.097 546.88 200.132 543.698C207.601 544.768 215.641 543.595 221.374 540.514ZM284.195 503.55L283.818 503.425C272.972 499.81 258.827 501.884 252.334 508.376L223.929 536.779C223.24 537.468 222.669 538.175 222.211 538.893C216.123 542.944 205.899 544.359 197.044 542.053C196.27 541.712 195.45 541.396 194.587 541.108L144.756 524.499C144.113 524.285 143.459 524.09 142.795 523.916C135.344 520.602 132.575 514.946 135.531 510.004C136.381 509.416 137.157 508.776 137.847 508.086L166.252 479.683C172.085 473.85 185.239 471.702 195.743 475.203L244.31 491.39C255.156 495.005 269.301 492.931 275.794 486.439L304.199 458.036C304.888 457.347 305.46 456.639 305.918 455.92C312.464 451.564 323.793 450.256 333.059 453.344L333.353 453.443C333.4 453.459 333.448 453.475 333.496 453.492L333.532 453.504L333.587 453.522C333.621 453.534 333.656 453.546 333.691 453.557L383.227 470.068C392.246 473.196 395.819 479.427 392.595 484.812C391.747 485.4 390.971 486.04 390.282 486.729L361.877 515.132C356.09 520.918 343.099 523.079 332.637 519.695L284.45 503.634L284.389 503.614L284.333 503.596C284.3 503.585 284.266 503.573 284.232 503.563L284.195 503.55ZM385.265 401.987L385.505 402.068C385.636 402.109 385.767 402.152 385.897 402.195L434.219 418.301C444.657 421.623 457.562 419.456 463.324 413.694L491.729 385.291C492.418 384.603 493.193 383.964 494.04 383.376C497.276 377.977 493.679 371.726 484.605 368.605L435.137 352.117C435.046 352.087 434.956 352.057 434.866 352.025L434.506 351.905C425.24 348.817 413.912 350.125 407.366 354.481C406.908 355.2 406.336 355.908 405.646 356.598L377.241 385.001C370.748 391.493 356.603 393.567 345.757 389.952L297.19 373.764C286.686 370.263 273.532 372.413 267.699 378.246L239.294 406.648C238.604 407.338 237.827 407.978 236.978 408.567C233.719 414.016 237.421 420.333 246.686 423.421L296.517 440.03C305.784 443.119 317.114 441.81 323.66 437.453C324.117 436.736 324.688 436.029 325.376 435.341L353.781 406.938C360.274 400.447 374.419 398.373 385.265 401.987ZM328.504 451.192C323.28 447.996 321.083 443.438 322.822 439.075C316.957 442.227 308.677 443.382 301.064 442.181C306.292 445.377 308.492 449.935 306.754 454.299C312.618 451.148 320.893 449.993 328.504 451.192ZM424.268 337.637C422.53 342 424.728 346.558 429.952 349.753C422.342 348.554 414.065 349.709 408.202 352.86C409.939 348.497 407.739 343.938 402.511 340.743C410.124 341.944 418.403 340.789 424.268 337.637ZM487.093 300.675L486.712 300.548C475.866 296.933 461.721 299.007 455.229 305.499L426.823 333.901C426.134 334.59 425.563 335.298 425.105 336.016C418.559 340.372 407.23 341.68 397.964 338.592L348.132 321.983C338.868 318.895 335.166 312.579 338.424 307.129C339.274 306.54 340.051 305.9 340.741 305.21L369.146 276.807C374.979 270.974 388.134 268.826 398.637 272.326L447.204 288.514C458.05 292.129 472.195 290.055 478.688 283.563L507.092 255.16C507.782 254.47 508.355 253.761 508.812 253.042C515.361 248.687 526.689 247.379 535.952 250.467L536.417 250.622C536.473 250.641 536.529 250.66 536.585 250.678L585.952 267.133C595.094 270.242 598.731 276.517 595.487 281.935C594.641 282.523 593.863 283.163 593.178 283.852L564.771 312.255C558.985 318.042 545.989 320.202 535.527 316.817L487.344 300.757C487.26 300.73 487.177 300.702 487.093 300.675ZM503.96 239.306C511.571 240.506 519.848 239.352 525.714 236.201C523.978 240.563 526.175 245.12 531.4 248.315C523.789 247.116 515.513 248.271 509.65 251.422C511.387 247.059 509.185 242.501 503.96 239.306ZM518.913 123.848C519.603 123.158 520.377 122.518 521.227 121.929C524.487 116.479 520.782 110.163 511.519 107.074L461.688 90.4656C452.422 87.3771 441.093 88.6856 434.548 93.0416C434.09 93.7598 433.518 94.4675 432.828 95.1569L404.423 123.559C397.931 130.051 383.786 132.125 372.94 128.51L372.447 128.346C372.4 128.331 372.354 128.316 372.308 128.3L324.236 112.278C313.755 108.841 300.689 110.997 294.881 116.804L266.476 145.207C265.786 145.896 265.01 146.536 264.161 147.125C260.921 152.54 264.556 158.813 273.692 161.922L323.067 178.379C323.095 178.388 323.123 178.398 323.151 178.407L323.217 178.429L323.248 178.44L323.7 178.59C332.964 181.678 344.292 180.37 350.837 176.016C351.296 175.296 351.868 174.588 352.558 173.897L380.964 145.495C387.456 139.002 401.602 136.929 412.447 140.544L461.015 156.731C471.518 160.232 484.673 158.083 490.506 152.25L518.913 123.848ZM95.0609 575.562L94.6648 575.43C83.8193 571.815 69.6739 573.889 63.1814 580.381L34.7764 608.784C34.0875 609.474 33.5161 610.18 33.0581 610.897C26.5127 615.252 15.1833 616.563 5.91675 613.476L-43.9149 596.867C-53.1787 593.779 -56.8807 587.459 -53.6234 582.011C-52.7733 581.423 -51.9966 580.782 -51.3065 580.092L-22.9012 551.69C-17.0679 545.857 -3.91367 543.708 6.59 547.209L55.1572 563.396C66.0029 567.011 80.148 564.937 86.6407 558.445L115.046 530.043C115.736 529.352 116.308 528.644 116.767 527.924C122.854 523.874 133.078 522.46 141.932 524.765C142.706 525.107 143.525 525.423 144.388 525.71L194.22 542.32C194.862 542.534 195.517 542.728 196.18 542.903C203.633 546.217 206.401 551.875 203.441 556.818C202.593 557.406 201.818 558.045 201.129 558.734L172.724 587.138C166.933 592.929 153.929 595.086 143.465 591.694L95.2965 575.64C95.2181 575.613 95.1396 575.587 95.0609 575.562ZM302.426 457.445C303.116 456.756 303.892 456.116 304.741 455.527C308.001 450.077 304.299 443.759 295.034 440.671L245.203 424.062C235.937 420.974 224.608 422.282 218.063 426.638C217.605 427.356 217.033 428.064 216.344 428.753L187.938 457.156C181.446 463.648 167.301 465.722 156.455 462.107L155.978 461.948C155.926 461.931 155.875 461.914 155.823 461.897L107.735 445.869C97.2564 442.439 84.2012 444.596 78.3962 450.4L49.991 478.803C49.3012 479.493 48.5249 480.133 47.6756 480.721C44.7182 485.665 47.4887 491.322 54.9431 494.636C55.6054 494.81 56.2586 495.004 56.9002 495.217L106.731 511.827C107.593 512.114 108.411 512.429 109.184 512.77C118.039 515.077 128.265 513.662 134.354 509.612C134.812 508.893 135.384 508.185 136.073 507.495L164.479 479.092C170.971 472.6 185.117 470.526 195.962 474.141L244.529 490.329C255.033 493.829 268.188 491.681 274.021 485.847L302.426 457.445ZM138.843 523.121C133.879 519.939 131.822 515.493 133.518 511.232C127.784 514.313 119.744 515.486 112.275 514.416C117.24 517.597 119.298 522.043 117.602 526.304C123.335 523.223 131.374 522.051 138.843 523.121ZM240.656 421.911C235.428 418.716 233.228 414.158 234.965 409.794C229.1 412.945 220.823 414.1 213.213 412.901C218.438 416.096 220.637 420.654 218.899 425.017C224.764 421.865 233.043 420.71 240.656 421.911ZM406.189 354.088C405.339 354.677 404.563 355.316 403.873 356.006L375.468 384.409C369.635 390.242 356.48 392.391 345.977 388.89L297.409 372.702C286.564 369.087 272.418 371.161 265.926 377.653L237.52 406.056C236.83 406.746 236.258 407.454 235.8 408.174C229.254 412.529 217.926 413.837 208.661 410.749L208.212 410.599L208.165 410.583L208.108 410.564L208.029 410.537L158.655 394.081C149.518 390.972 145.883 384.7 149.122 379.285C149.972 378.696 150.748 378.056 151.438 377.366L179.843 348.963C185.677 343.13 198.831 340.981 209.334 344.482L257.902 360.67C268.748 364.285 282.893 362.211 289.385 355.719L317.791 327.316C318.48 326.626 319.052 325.918 319.51 325.199C326.056 320.844 337.384 319.536 346.65 322.624L396.481 339.233C405.746 342.321 409.448 348.638 406.189 354.088ZM505.32 254.568C506.009 253.878 506.787 253.238 507.637 252.65C510.893 247.199 507.192 240.883 497.929 237.795L448.097 221.186C438.831 218.098 427.504 219.406 420.958 223.761C420.5 224.48 419.928 225.188 419.237 225.879L390.832 254.281C384.339 260.774 370.194 262.848 359.348 259.233L310.781 243.045C300.278 239.544 287.123 241.693 281.29 247.526L252.885 275.929C252.194 276.619 251.418 277.259 250.568 277.848C247.31 283.297 251.012 289.614 260.277 292.702L310.108 309.311C319.373 312.398 330.7 311.091 337.246 306.736C337.705 306.017 338.277 305.308 338.967 304.618L367.372 276.215C373.865 269.723 388.01 267.649 398.856 271.264L447.423 287.451C457.927 290.952 471.081 288.804 476.915 282.971L505.32 254.568ZM342.102 320.473C336.875 317.278 334.675 312.72 336.412 308.356C330.547 311.508 322.269 312.662 314.658 311.462C319.884 314.657 322.083 319.215 320.346 323.578C326.211 320.426 334.49 319.272 342.102 320.473ZM443.548 219.034C438.321 215.839 436.121 211.281 437.859 206.917C431.993 210.069 423.713 211.224 416.101 210.023C421.329 213.218 423.53 217.776 421.793 222.14C427.658 218.989 435.936 217.834 443.548 219.034ZM500.804 169.993L500.303 169.827C489.457 166.212 475.312 168.286 468.819 174.778L440.414 203.18C439.725 203.87 439.153 204.578 438.695 205.296C432.149 209.652 420.821 210.96 411.555 207.872L361.724 191.263C352.459 188.175 348.757 181.858 352.015 176.408C352.865 175.82 353.641 175.18 354.332 174.49L382.737 146.087C388.57 140.254 401.725 138.105 412.229 141.606L460.795 157.794C471.641 161.409 485.786 159.335 492.279 152.843L520.686 124.44C521.375 123.75 521.945 123.041 522.406 122.322C528.95 117.967 540.278 116.659 549.545 119.747L599.373 136.356C608.64 139.444 612.341 145.763 609.081 151.213C608.231 151.802 607.457 152.441 606.767 153.131L578.361 181.533C572.555 187.342 559.482 189.497 549 186.057L500.937 170.037L500.881 170.019L500.804 169.993ZM108.32 513.62C115.774 516.933 118.544 522.589 115.589 527.532C114.739 528.12 113.963 528.76 113.273 529.45L84.8677 557.853C79.0342 563.686 65.8797 565.835 55.3762 562.334L6.80856 546.146C-4.03674 542.531 -18.1823 544.605 -24.6748 551.097L-53.0801 579.5C-53.7706 580.19 -54.3428 580.899 -54.8012 581.619C-61.3474 585.972 -72.6743 587.283 -81.9389 584.193L-131.771 567.584C-140.936 564.529 -144.657 558.315 -141.581 552.905C-140.831 552.367 -140.141 551.787 -139.52 551.166L-111.115 522.764C-105.282 516.931 -92.1274 514.782 -81.6237 518.283L-33.0564 534.471C-22.2107 538.086 -8.06558 536.012 -1.57306 529.519L26.8322 501.117C27.5849 500.364 28.1968 499.59 28.674 498.803C34.7319 494.63 45.1092 493.148 54.0796 495.485C54.8524 495.826 55.6704 496.141 56.5317 496.428L106.364 513.037C107.005 513.251 107.658 513.445 108.32 513.62ZM45.6622 481.949C43.9652 486.211 46.0231 490.658 50.9886 493.84C43.3966 492.752 35.2155 493.981 29.4656 497.176C31.1141 492.717 28.6772 488.081 23.1223 484.923C30.9453 486.333 39.5947 485.209 45.6622 481.949ZM108.583 445.018L108.106 444.858C97.2605 441.244 83.1151 443.318 76.6225 449.81L48.2173 478.212C47.5276 478.902 46.9558 479.61 46.4979 480.329C39.952 484.684 28.6239 485.992 19.3589 482.904L-30.4732 466.295C-39.7382 463.206 -43.4398 456.889 -40.1805 451.439C-39.3308 450.851 -38.5548 450.211 -37.8651 449.521L-9.45981 421.118C-3.62653 415.285 9.52811 413.136 20.0318 416.637L68.5988 432.825C79.4445 436.44 93.5896 434.366 100.082 427.874L128.487 399.471C129.177 398.781 129.749 398.074 130.207 397.355C136.753 392.999 148.081 391.691 157.347 394.779L157.803 394.931C157.861 394.951 157.92 394.971 157.979 394.99L207.359 411.449C216.492 414.558 220.125 420.83 216.885 426.245C216.036 426.833 215.26 427.473 214.57 428.163L186.165 456.566C180.36 462.37 167.305 464.526 156.827 461.097L108.738 445.069L108.661 445.043L108.583 445.018ZM316.017 326.724C316.707 326.035 317.483 325.395 318.333 324.806C321.592 319.356 317.891 313.039 308.625 309.951L258.794 293.342C249.527 290.253 238.198 291.562 231.652 295.918C231.195 296.636 230.623 297.343 229.934 298.032L201.53 326.435C195.037 332.927 180.891 335.001 170.046 331.386L169.662 331.258C169.579 331.231 169.497 331.204 169.414 331.177L121.234 315.118C110.771 311.731 97.7755 313.892 91.9874 319.679L63.5822 348.082C62.8927 348.771 62.117 349.411 61.2681 349.999C58.0239 355.42 61.6669 361.699 70.8215 364.806L120.173 381.255C120.227 381.273 120.281 381.292 120.335 381.31L120.806 381.466C130.071 384.554 141.398 383.246 147.944 378.892C148.402 378.173 148.974 377.464 149.664 376.774L178.07 348.371C184.562 341.88 198.708 339.806 209.553 343.42L258.12 359.608C268.624 363.109 281.779 360.96 287.612 355.127L316.017 326.724ZM152.796 392.627C147.571 389.432 145.372 384.875 147.109 380.512C141.244 383.663 132.967 384.818 125.356 383.618C130.581 386.813 132.78 391.371 131.043 395.734C136.907 392.582 145.184 391.427 152.796 392.627ZM254.245 291.19C249.019 287.996 246.819 283.438 248.555 279.075C242.692 282.226 234.417 283.38 226.807 282.182C232.03 285.377 234.227 289.934 232.489 294.297C238.354 291.145 246.632 289.99 254.245 291.19ZM419.78 223.368C418.931 223.957 418.154 224.597 417.464 225.287L389.059 253.689C383.226 259.522 370.071 261.671 359.567 258.17L311 241.983C300.155 238.368 286.009 240.441 279.517 246.934L251.111 275.336C250.421 276.027 249.849 276.736 249.39 277.455C242.844 281.809 231.517 283.117 222.253 280.029L221.963 279.933C221.85 279.893 221.735 279.855 221.62 279.816L172.086 263.306C163.066 260.178 159.492 253.947 162.715 248.562C163.564 247.974 164.34 247.334 165.029 246.645L193.435 218.242C199.221 212.456 212.211 210.295 222.672 213.678L270.861 229.739C270.947 229.768 271.033 229.796 271.119 229.824L271.493 229.949C282.339 233.564 296.484 231.49 302.977 224.998L331.382 196.595C332.071 195.906 332.642 195.199 333.1 194.481C339.646 190.125 350.974 188.816 360.241 191.905L410.072 208.514C419.337 211.601 423.039 217.918 419.78 223.368ZM328.25 180.742C335.862 181.942 344.138 180.787 350.002 177.636C348.266 182 350.467 186.559 355.696 189.753C348.082 188.552 339.802 189.707 333.936 192.859C335.675 188.496 333.476 183.938 328.25 180.742ZM-256.647 458.814L-257.117 458.658C-267.962 455.043 -282.107 457.117 -288.6 463.609L-317.006 492.011C-317.695 492.701 -318.265 493.409 -318.726 494.128C-325.27 498.483 -336.598 499.791 -345.865 496.703L-395.697 480.094C-406.199 476.592 -409.551 468.941 -403.721 463.109L-375.314 434.706C-369.48 428.873 -356.327 426.724 -345.821 430.225L-297.255 446.413C-286.41 450.028 -272.264 447.954 -265.772 441.462L-237.366 413.059C-231.533 407.226 -218.379 405.077 -207.875 408.578L-158.044 425.187C-148.778 428.275 -145.076 434.593 -148.337 440.044C-149.187 440.632 -149.963 441.272 -150.652 441.962L-179.058 470.364C-184.861 476.167 -197.912 478.324 -208.388 474.898L-256.484 458.868C-256.538 458.85 -256.592 458.832 -256.647 458.814ZM-209.237 475.75L-208.768 475.906C-197.922 479.521 -183.777 477.447 -177.284 470.955L-148.879 442.552C-148.189 441.863 -147.618 441.155 -147.16 440.436C-140.614 436.081 -129.286 434.773 -120.02 437.861L-70.1886 454.47C-60.924 457.558 -57.222 463.874 -60.4809 469.324C-61.3302 469.913 -62.1065 470.553 -62.7966 471.243L-91.2019 499.646C-97.0352 505.479 -110.19 507.628 -120.693 504.126L-169.261 487.939C-180.106 484.324 -194.252 486.398 -200.744 492.89L-229.15 521.293C-229.84 521.983 -230.412 522.692 -230.871 523.411C-237.416 527.766 -248.744 529.074 -258.008 525.986L-307.84 509.377C-317.106 506.288 -320.807 499.97 -317.547 494.52C-316.697 493.931 -315.923 493.292 -315.233 492.602L-286.826 464.199C-281.023 458.396 -267.972 456.24 -257.495 459.665L-209.4 475.696C-209.346 475.714 -209.291 475.732 -209.237 475.75ZM-146.324 438.816C-144.523 434.296 -146.948 429.567 -152.584 426.361C-144.763 427.769 -136.117 426.647 -130.051 423.388C-131.848 427.908 -129.422 432.637 -123.782 435.842C-131.605 434.432 -140.256 435.555 -146.324 438.816ZM-55.5378 322.69C-55.4468 322.72 -55.3565 322.751 -55.2663 322.782L-54.9054 322.902C-45.6416 325.99 -34.3155 324.683 -27.7693 320.329C-27.3105 319.609 -26.7379 318.899 -26.047 318.208L2.35831 289.806C8.85083 283.314 22.9964 281.24 33.8417 284.855L82.4092 301.042C92.9127 304.543 106.067 302.394 111.901 296.561L140.306 268.159C140.996 267.468 141.773 266.828 142.623 266.239C145.88 260.79 142.178 254.474 132.914 251.386L83.0829 234.777C73.8163 231.689 62.4872 232.997 55.9415 237.354C55.4837 238.072 54.9125 238.779 54.2235 239.468L25.8185 267.87C19.3256 274.362 5.18054 276.436 -5.66519 272.821L-6.04373 272.695C-6.12836 272.668 -6.21255 272.64 -6.29675 272.612L-54.482 256.552C-64.9435 253.167 -77.9366 255.328 -83.7238 261.115L-112.129 289.518C-112.818 290.207 -113.594 290.847 -114.443 291.435C-117.674 296.833 -114.073 303.084 -105.001 306.204L-55.5378 322.69ZM-105.588 307.143C-105.677 307.114 -105.766 307.084 -105.855 307.053L-106.22 306.932C-116.724 303.431 -129.878 305.58 -135.711 311.412L-164.116 339.815C-170.609 346.307 -184.754 348.381 -195.599 344.766L-244.167 328.579C-254.671 325.078 -267.825 327.227 -273.658 333.059L-302.064 361.462C-307.897 367.295 -304.544 374.946 -294.04 378.447L-244.208 395.056C-234.942 398.145 -223.613 396.836 -217.067 392.48C-216.609 391.762 -216.038 391.055 -215.349 390.366L-186.944 361.964C-180.452 355.472 -166.306 353.398 -155.461 357.013L-155.162 357.112C-155.05 357.148 -154.939 357.184 -154.829 357.221L-106.564 373.308C-96.1165 376.656 -83.1744 374.492 -77.4017 368.72L-48.9968 340.317C-48.3074 339.628 -47.5323 338.988 -46.6838 338.401C-43.451 333.002 -47.0495 326.752 -56.1205 323.631L-105.588 307.143ZM-50.3529 325.054C-45.128 328.25 -42.9301 332.808 -44.6692 337.172C-38.803 334.019 -30.5221 332.864 -22.908 334.065C-28.1374 330.871 -30.3392 326.313 -28.6033 321.949C-34.4671 325.099 -42.7424 326.253 -50.3529 325.054ZM-107.112 374.26L-107.41 374.16C-107.522 374.125 -107.633 374.088 -107.744 374.051L-156.008 357.964C-166.456 354.616 -179.398 356.781 -185.171 362.553L-213.576 390.956C-214.265 391.645 -215.041 392.284 -215.889 392.872C-219.153 398.323 -215.452 404.643 -206.184 407.732L-156.352 424.341C-147.089 427.429 -135.763 426.121 -129.216 421.768C-128.758 421.048 -128.185 420.338 -127.494 419.647L-99.0887 391.244C-92.5962 384.753 -78.4511 382.679 -67.6053 386.293L-19.038 402.481C-8.5343 405.982 4.61993 403.833 10.4536 398L38.8589 369.597C39.549 368.907 40.3261 368.267 41.1762 367.678C44.4327 362.229 40.7308 355.913 31.467 352.825L-18.3643 336.216C-27.6313 333.128 -38.9607 334.437 -45.5065 338.793C-45.964 339.511 -46.535 340.218 -47.2235 340.906L-75.6284 369.309C-82.1214 375.801 -96.2665 377.875 -107.112 374.26ZM-53.6347 255.7L-54.0136 255.574C-64.8589 251.959 -79.0045 254.033 -85.497 260.525L-113.902 288.928C-114.592 289.617 -115.163 290.324 -115.621 291.042C-122.166 295.398 -133.495 296.707 -142.761 293.618L-192.593 277.009C-203.096 273.508 -206.45 265.857 -200.617 260.024L-172.211 231.622C-166.378 225.789 -153.223 223.64 -142.72 227.14L-94.1524 243.328C-83.3071 246.943 -69.1616 244.869 -62.6691 238.377L-34.2638 209.974C-28.4305 204.141 -15.2767 201.992 -4.77258 205.493L-4.32068 205.644C-4.26093 205.664 -4.20117 205.685 -4.14102 205.705L45.2355 222.162C54.3726 225.272 58.0061 231.545 54.7639 236.961C53.9153 237.549 53.1397 238.189 52.4505 238.878L24.0453 267.281C18.2578 273.068 5.26474 275.228 -5.19644 271.843L-53.3816 255.783C-53.4655 255.755 -53.5501 255.727 -53.6347 255.7ZM56.7782 235.732C58.5169 231.369 56.3183 226.81 51.0925 223.615C58.7036 224.814 66.9803 223.66 72.8446 220.509C71.1074 224.872 73.3078 229.431 78.5353 232.626C70.9225 231.426 62.6436 232.58 56.7782 235.732ZM46.0884 221.312L46.5412 221.463C55.8064 224.551 67.1338 223.243 73.6799 218.889C74.1381 218.169 74.7101 217.461 75.4002 216.771L103.805 188.368C110.298 181.876 124.443 179.802 135.289 183.417L183.856 199.605C194.36 203.106 207.514 200.957 213.348 195.124L241.753 166.721C242.443 166.032 243.219 165.392 244.068 164.803C247.328 159.353 243.626 153.036 234.361 149.947L184.53 133.338C175.263 130.25 163.934 131.559 157.388 135.915C156.93 136.633 156.359 137.34 155.67 138.029L127.265 166.432C120.773 172.924 106.627 174.998 95.7817 171.383L95.403 171.256C95.3185 171.229 95.2341 171.201 95.15 171.173L46.965 155.113C36.5031 151.728 23.5104 153.889 17.7233 159.676L-10.6821 188.079C-11.3714 188.768 -12.1473 189.408 -12.9962 189.996C-16.2375 195.412 -12.604 201.685 -3.46735 204.794L45.9092 221.252C45.9429 221.263 45.9762 221.274 46.0099 221.286C46.0359 221.294 46.0624 221.303 46.0884 221.312ZM-58.4679 468.097C-56.6682 463.576 -59.095 458.846 -64.7358 455.64C-56.912 457.05 -48.2613 455.928 -42.1935 452.667C-43.9935 457.188 -41.5675 461.917 -35.9279 465.123C-43.7509 463.713 -52.4004 464.837 -58.4679 468.097ZM-227.376 521.885C-228.066 522.575 -228.843 523.215 -229.693 523.804C-232.951 529.254 -229.248 535.57 -219.984 538.658L-170.153 555.267C-160.775 558.393 -149.285 557.015 -142.778 552.533C-142.301 551.746 -141.688 550.971 -140.936 550.218L-112.53 521.816C-106.038 515.324 -91.8924 513.25 -81.0471 516.865L-32.4794 533.053C-21.9761 536.553 -8.82144 534.405 -2.98816 528.571L25.4172 500.169C26.0371 499.549 26.7272 498.969 27.4771 498.431C30.5539 493.021 26.8327 486.806 17.6671 483.751L-32.1642 467.142C-41.4296 464.054 -52.7569 465.362 -59.3031 469.717C-59.7611 470.436 -60.3333 471.145 -61.0238 471.835L-89.4287 500.238C-95.9217 506.73 -110.067 508.804 -120.912 505.189L-169.479 489.001C-179.983 485.501 -193.137 487.65 -198.971 493.482L-227.376 521.885ZM-128.039 422.161C-127.188 421.572 -126.411 420.931 -125.72 420.24L-97.3151 391.838C-91.4818 386.005 -78.3276 383.856 -67.8235 387.357L-19.2566 403.544C-8.41083 407.159 5.73428 405.085 12.2268 398.593L40.6321 370.191C41.323 369.5 41.8956 368.79 42.354 368.07C48.9002 363.716 60.2266 362.409 69.4911 365.497L69.9687 365.656C70.0201 365.674 70.0716 365.691 70.1233 365.708L119.482 382.16C128.63 385.267 132.271 391.543 129.029 396.962C128.18 397.55 127.404 398.19 126.715 398.88L98.3096 427.282C92.4761 433.115 79.3216 435.264 68.8181 431.763L20.2507 415.575C9.405 411.961 -4.74051 414.035 -11.233 420.527L-39.6379 448.929C-40.328 449.619 -40.8998 450.327 -41.3582 451.047C-47.904 455.401 -59.2318 456.71 -68.4972 453.621L-118.329 437.012C-127.592 433.925 -131.294 427.61 -128.039 422.161ZM43.1885 366.451C44.9248 362.087 42.7229 357.528 37.4935 354.333C45.1072 355.535 53.3878 354.38 59.2541 351.228C57.5157 355.591 59.7145 360.149 64.9404 363.345C57.3293 362.146 49.053 363.3 43.1885 366.451ZM144.635 265.012C146.371 260.648 144.171 256.091 138.944 252.897C146.557 254.097 154.836 252.943 160.701 249.791C158.963 254.153 161.161 258.71 166.383 261.905C158.773 260.707 150.499 261.861 144.635 265.012ZM-24.273 318.802C-24.9639 319.492 -25.741 320.133 -26.5916 320.722C-29.8472 326.171 -26.1448 332.486 -16.8819 335.574L32.9499 352.182C42.2161 355.271 53.5448 353.962 60.0905 349.606C60.5483 348.888 61.1198 348.181 61.8089 347.492L90.2141 319.09C96.7065 312.597 110.852 310.523 121.697 314.138L122.081 314.266C122.164 314.293 122.247 314.32 122.33 314.348L170.51 330.406C180.972 333.793 193.968 331.633 199.756 325.845L228.162 297.443C228.851 296.753 229.626 296.114 230.475 295.526C233.698 290.142 230.126 283.91 221.108 280.782L171.57 264.271C171.497 264.246 171.424 264.222 171.351 264.197C171.31 264.183 171.271 264.169 171.231 264.156L170.938 264.058C161.674 260.97 150.348 262.278 143.801 266.631C143.343 267.352 142.77 268.061 142.079 268.752L113.674 297.154C107.181 303.646 93.0363 305.72 82.1906 302.105L33.6235 285.918C23.1198 282.417 9.96518 284.566 4.1319 290.399L-24.273 318.802ZM47.8123 154.261L47.433 154.135C36.5877 150.52 22.4422 152.594 15.9497 159.086L-12.4557 187.489C-13.1446 188.178 -13.716 188.885 -14.1739 189.603C-20.7198 193.959 -32.0483 195.268 -41.3145 192.179L-91.1462 175.57C-101.649 172.069 -105.003 164.418 -99.1697 158.585L-70.7648 130.183C-64.9315 124.35 -51.7769 122.201 -41.2732 125.701L7.29416 141.889C18.1399 145.504 32.285 143.43 38.7779 136.938L67.1829 108.536C73.0164 102.702 86.1703 100.553 96.674 104.055L96.9694 104.153C97.0809 104.192 97.1931 104.23 97.3061 104.267L146.839 120.777C155.861 123.905 159.434 130.137 156.211 135.522C155.362 136.111 154.587 136.75 153.897 137.439L125.492 165.842C119.705 171.629 106.712 173.789 96.2503 170.405L48.0654 154.344C47.9812 154.316 47.897 154.289 47.8123 154.261ZM158.225 134.293C159.963 129.931 157.766 125.374 152.543 122.178C160.153 123.377 168.427 122.222 174.291 119.072C172.555 123.435 174.755 127.992 179.98 131.187C172.368 129.987 164.09 131.141 158.225 134.293ZM147.694 119.928L147.989 120.026C157.253 123.114 168.579 121.806 175.126 117.452C175.584 116.732 176.156 116.023 176.847 115.333L205.252 86.93C211.745 80.4383 225.89 78.3644 236.736 81.9789L285.303 98.1667C295.807 101.668 308.961 99.5189 314.795 93.686L343.2 65.2831C343.89 64.593 344.666 63.953 345.517 63.3643C348.774 57.9144 345.073 51.5979 335.808 48.5103L285.977 31.901C276.71 28.8126 265.38 30.1214 258.835 34.4782C258.377 35.1956 257.806 35.9022 257.117 36.5907L228.712 64.9936C222.22 71.4853 208.075 73.5592 197.229 69.9447L196.927 69.8436C196.871 69.826 196.815 69.8079 196.76 69.7895C196.706 69.7718 196.651 69.7542 196.597 69.7362L148.337 53.6506C137.888 50.3007 124.944 52.4649 119.17 58.2376L90.7651 86.6405C90.0759 87.3298 89.3004 87.969 88.4517 88.5573C85.2273 93.9426 88.8014 100.176 97.8246 103.304L147.356 119.813C147.469 119.851 147.582 119.889 147.694 119.928ZM246.082 163.575C247.819 159.212 245.619 154.654 240.393 151.459C248.005 152.659 256.283 151.504 262.148 148.353C260.41 152.716 262.609 157.274 267.834 160.469C260.222 159.269 251.946 160.424 246.082 163.575ZM77.1737 217.362C76.4837 218.052 75.7073 218.692 74.8577 219.281C71.5986 224.731 75.3004 231.048 84.5652 234.136L134.397 250.745C143.663 253.834 154.992 252.525 161.537 248.169C161.995 247.451 162.566 246.744 163.256 246.055L191.661 217.652C198.154 211.16 212.299 209.086 223.144 212.701L223.519 212.826C223.549 212.836 223.579 212.846 223.61 212.855C223.633 212.863 223.656 212.871 223.679 212.878L223.739 212.898L223.777 212.911L271.966 228.972C282.427 232.355 295.417 230.194 301.203 224.408L329.609 196.005C330.298 195.316 331.073 194.676 331.922 194.088C335.164 188.673 331.531 182.4 322.395 179.29L273.017 162.832C272.958 162.812 272.898 162.792 272.839 162.772L272.385 162.621C263.12 159.532 251.792 160.841 245.246 165.196C244.788 165.915 244.216 166.623 243.526 167.313L215.121 195.715C208.628 202.208 194.483 204.281 183.638 200.667L135.07 184.479C124.567 180.978 111.412 183.127 105.579 188.96L77.1737 217.362ZM257.657 34.0857C260.922 28.6345 257.22 22.3144 247.952 19.2256L198.121 2.61635C187.617 -0.884343 174.464 1.26459 168.63 7.09746L140.225 35.5C133.732 41.9921 119.587 44.066 108.741 40.4515L60.1739 24.2637C49.6705 20.7626 36.5159 22.9115 30.6826 28.7444L2.27731 57.1473C-3.55597 62.9798 -0.202454 70.6312 10.3012 74.1319L60.1328 90.7411C69.3992 93.8296 80.7286 92.5207 87.2743 88.1647C87.7319 87.4469 88.303 86.74 88.9917 86.0515L117.397 57.6489C123.889 51.1568 138.035 49.0829 148.88 52.6975L149.183 52.7985C149.293 52.8338 149.403 52.8699 149.512 52.9064L197.773 68.9919C208.221 72.3418 221.166 70.1777 226.939 64.4045L255.344 36.002C256.034 35.3127 256.809 34.6735 257.657 34.0857ZM178.621 115.925C177.931 116.616 177.153 117.256 176.303 117.845C173.046 123.294 176.748 129.61 186.012 132.698L235.844 149.307C245.109 152.395 256.437 151.087 262.983 146.732C263.441 146.013 264.013 145.305 264.703 144.616L293.108 116.213C299.6 109.721 313.746 107.647 324.591 111.262L325.085 111.426C325.131 111.442 325.177 111.457 325.223 111.473L373.296 127.495C383.776 130.932 396.842 128.777 402.65 122.969L431.055 94.5662C431.745 93.8769 432.521 93.2373 433.37 92.649C436.631 87.1983 432.93 80.8798 423.663 77.7913L373.832 61.1825C364.567 58.0945 353.24 59.4021 346.694 63.7569C346.236 64.4763 345.664 65.1849 344.973 65.8754L316.568 94.2783C310.075 100.77 295.93 102.844 285.085 99.2294L236.518 83.0416C226.013 79.5409 212.859 81.6898 207.026 87.5227L178.621 115.925Z" fill="white" fill-opacity="0.06"/>
</svg>
