<svg width="96" height="96" viewBox="0 0 96 96" fill="none" xmlns="http://www.w3.org/2000/svg">
<path d="M71.9781 25.8641C71.9274 25.5005 71.6087 25.2989 71.3429 25.2765C71.08 25.2549 65.9242 25.1765 65.9242 25.1765C65.9242 25.1765 61.6121 21.0141 61.1863 20.59C60.7604 20.1667 59.929 20.2948 59.6053 20.3906C59.6009 20.3928 58.7956 20.6404 57.4398 21.058C57.1717 20.1842 56.8243 19.3364 56.402 18.5251C54.8666 15.6127 52.6186 14.0726 49.9027 14.0683H49.8926C49.7036 14.0683 49.516 14.0863 49.3277 14.1021C49.2482 14.0067 49.1666 13.913 49.0829 13.8213C47.8988 12.562 46.3815 11.9493 44.5637 12.0033C41.0555 12.1026 37.5618 14.6219 34.7286 19.096C32.7356 22.2446 31.2183 26.1996 30.7888 29.2618L23.8804 31.3886C21.8467 32.0244 21.783 32.0863 21.5172 33.9922C21.3209 35.4322 16 76.3334 16 76.3334L60.5881 84L79.9128 79.2242C79.9128 79.2242 72.0288 26.2269 71.9781 25.8641ZM55.207 21.7449L51.7466 22.8098C51.7206 21.0436 51.5098 18.587 50.682 16.4637C53.3443 16.9648 54.6544 19.9593 55.207 21.7449ZM49.4139 23.5284L41.9695 25.8201C42.6894 23.0813 44.0531 20.3546 45.729 18.5668C46.3518 17.9015 47.2238 17.1607 48.2566 16.7373C49.227 18.7504 49.4385 21.6009 49.4139 23.5284ZM44.634 14.3239C45.4581 14.3059 46.1512 14.4859 46.7436 14.8732C45.7949 15.3628 44.8795 16.0663 44.0191 16.9828C41.7914 19.3596 40.0829 23.0496 39.4021 26.6093C37.2779 27.2623 35.2008 27.9031 33.2881 28.4906C34.4954 22.8876 39.2196 14.4794 44.634 14.3239Z" fill="#95BF47"/>
<path d="M71.3454 25.2785C71.0825 25.2569 65.9267 25.1784 65.9267 25.1784C65.9267 25.1784 61.6146 21.0153 61.1888 20.592C61.0295 20.4343 60.8151 20.3522 60.5898 20.3184L60.592 83.9976L79.9145 79.224C79.9145 79.224 72.0313 26.2289 71.9806 25.8653C71.9299 25.5024 71.609 25.3001 71.3454 25.2785Z" fill="#5E8E3E"/>
<path d="M49.8782 35.1566L47.6338 43.5044C47.6338 43.5044 45.1308 42.3718 42.1629 42.5576C37.8103 42.8312 37.7647 45.56 37.8089 46.2447C38.0457 49.9786 47.9256 50.7937 48.4797 59.5381C48.9157 66.4177 44.8093 71.1244 38.8916 71.4959C31.789 71.9409 27.8789 67.7764 27.8789 67.7764L29.3839 61.4116C29.3839 61.4116 33.3201 64.3643 36.4705 64.167C38.528 64.0374 39.2631 62.3728 39.1892 61.1963C38.8793 56.3262 30.8345 56.6142 30.3261 48.6121C29.8988 41.8786 34.347 35.0544 44.1618 34.4395C47.943 34.1976 49.8782 35.1566 49.8782 35.1566Z" fill="white"/>
</svg>
