<svg width="96" height="96" viewBox="0 0 96 96" fill="none" xmlns="http://www.w3.org/2000/svg">
<path d="M30.9984 45.3483C30.9984 43.6262 29.3238 41.7971 26.4258 41.7971C23.1716 41.7971 19.5967 44.1844 19.0504 48.947C18.4921 53.757 21.4851 55.8949 24.5018 55.8949C27.5185 55.8949 29.0981 54.7191 30.7134 53.1513C29.3238 51.4054 27.5304 52.2131 27.1859 52.3912C26.8059 52.5812 26.3189 52.8425 25.3213 52.8425C24.1574 52.8425 22.9697 52.32 22.9697 50.1465C30.4283 49.4101 30.9984 47.0704 30.9984 45.3483ZM27.3047 45.6333C27.2572 46.1678 27.0434 47.0823 23.2666 47.593C24.0624 44.7663 25.5826 44.5525 26.2833 44.5525C26.9365 44.5525 27.3522 45.0632 27.3047 45.6333ZM14.6678 46.0965C14.6678 46.0965 13.0645 51.1323 12.9338 51.548C12.8863 51.1204 11.7105 42.0822 11.7105 42.0822C8.97884 42.0822 7.518 44.03 6.74601 46.0846C6.74601 46.0846 4.79822 51.1323 4.63194 51.5598C4.62007 51.1679 4.33502 46.144 4.33502 46.144C4.16875 43.6262 1.86465 42.0941 0 42.0941L2.25659 55.788C5.11889 55.7761 6.66287 53.8402 7.47049 51.7855C7.47049 51.7855 9.19263 47.3317 9.26389 47.1298C9.27576 47.3198 10.4991 55.788 10.4991 55.788C13.3733 55.788 14.9172 53.9708 15.7486 51.9874L19.7748 42.0941C16.9363 42.0941 15.4398 44.03 14.6678 46.0965ZM41.545 41.7734C39.7753 41.7734 38.4214 42.7354 37.2812 44.1487V44.1369L38.3026 35.9062C35.951 35.9062 34.0388 37.9491 33.6707 40.9895L31.8892 55.6811C33.2431 55.6811 34.6802 55.2892 35.4522 54.2915C36.141 55.1823 37.1743 55.8949 38.7064 55.8949C42.6733 55.8949 45.393 51.2867 45.393 46.9635C45.3693 43.0204 43.4571 41.7734 41.545 41.7734ZM41.1768 48.8401C40.7611 51.251 39.419 52.89 38.1245 52.89C36.818 52.89 36.2598 52.3081 36.2598 52.3081C36.5092 50.194 36.6636 48.8994 37.1387 47.783C37.6138 46.6666 38.7421 44.8851 39.9179 44.8851C41.0699 44.8851 41.5925 46.4172 41.1768 48.8401ZM55.2983 42.0941H52.531L52.5429 41.9515C52.7329 40.1463 53.1605 39.1961 54.5738 39.0417C55.5358 38.9467 55.9634 38.4479 56.0703 37.9015C56.1534 37.474 56.4147 35.9894 56.4147 35.9894C50.8564 35.9538 49.1105 38.3529 48.6592 42.0109L48.6473 42.0941H48.5879C47.6853 42.0941 46.6876 43.1155 46.5213 44.41L46.462 44.8851H48.3147L46.7589 57.7358L46.2838 60.0399C46.3432 60.0399 46.4144 60.0517 46.4738 60.0517C49.0748 59.9567 50.7376 57.902 51.1058 54.921L52.3172 44.8851H53.1842C54.0393 44.8851 55.037 44.03 55.2151 42.6048L55.2983 42.0941ZM69.6929 41.8565C66.4981 41.8565 63.4814 44.2081 62.555 47.9018C61.6286 51.5955 63.0301 55.9661 67.7333 55.9661C72.4246 55.9661 75.1325 51.4173 75.1325 47.6286C75.1325 43.8637 72.579 41.8565 69.6929 41.8565ZM70.9875 48.7213C70.8212 50.3959 70.0849 52.9375 68.0658 52.9375C66.0349 52.9375 66.3199 49.9684 66.5218 48.555C66.7356 47.0467 67.5789 44.897 69.396 44.897C71.0231 44.897 71.1775 46.8329 70.9875 48.7213ZM90.9167 46.0965C90.9167 46.0965 89.3134 51.1323 89.1827 51.548C89.1352 51.1204 87.9594 42.0822 87.9594 42.0822C85.2278 42.0822 83.7669 44.03 82.9949 46.0846C82.9949 46.0846 81.0471 51.1323 80.8809 51.5598C80.869 51.1679 80.5839 46.144 80.5839 46.144C80.4177 43.6262 78.1136 42.0941 76.2489 42.0941L78.4936 55.788C81.3559 55.7761 82.8999 53.8402 83.7075 51.7855C83.7075 51.7855 85.4297 47.3317 85.4891 47.1298C85.5009 47.3198 86.7242 55.788 86.7242 55.788C89.5984 55.788 91.1424 53.9708 91.9738 51.9874L96 42.0941C93.1733 42.0941 91.6769 44.03 90.9167 46.0965ZM57.9112 35.9894L55.5833 54.7666L55.1083 57.0825C55.1676 57.0825 55.2389 57.0944 55.2983 57.0944C57.8043 57.0588 59.5858 54.8616 59.9183 52.0943L61.2604 41.3221C61.6642 38.0322 59.7046 35.9894 57.9112 35.9894Z" fill="#D5D5D5"/>
</svg>
