<svg width="91" height="91" viewBox="0 0 91 91" fill="none" xmlns="http://www.w3.org/2000/svg">
<path d="M8.4455 18.3066H82.5174C87.2053 18.3066 90.9999 22.1013 90.9999 26.7892V55.0635C90.9999 59.7514 87.2053 63.5461 82.5174 63.5461H55.9543L59.6003 72.4747L43.5655 63.5461H8.48247C3.7949 63.5461 0.000273026 59.7514 0.000273026 55.0635V26.7892C-0.0370512 22.1386 3.75722 18.3066 8.4455 18.3066Z" fill="#9D9D9D"/>
<path d="M5.18352 26.0383C5.70144 25.3352 6.47814 24.9655 7.51397 24.8916C9.4008 24.7433 10.4736 25.6309 10.7324 27.5547C11.8791 35.2862 13.1368 41.8339 14.4684 47.1976L22.5695 31.772C23.3096 30.3661 24.2345 29.6264 25.3443 29.5525C26.972 29.4416 27.9705 30.4771 28.3775 32.6596C29.3024 37.5793 30.4861 41.7596 31.8917 45.3108C32.8536 35.915 34.4813 29.1455 36.7747 24.9655C37.3293 23.9297 38.1433 23.4118 39.2161 23.3375C40.0671 23.2639 40.8438 23.5227 41.5466 24.0775C42.2493 24.6324 42.6194 25.3352 42.6933 26.1862C42.7303 26.852 42.6194 27.4069 42.3236 27.9618C40.8808 30.6253 39.6967 35.1013 38.7352 41.3156C37.8106 47.3455 37.4775 52.0437 37.6993 55.41C37.7736 56.3342 37.6254 57.1482 37.2557 57.8513C36.8114 58.665 36.1459 59.109 35.2949 59.1829C34.333 59.2569 33.3345 58.8132 32.3726 57.8144C28.9324 54.2999 26.1949 49.0471 24.1975 42.0557C21.7928 46.7906 20.0172 50.3417 18.8705 52.7091C16.6879 56.8894 14.8384 59.0351 13.2847 59.146C12.2858 59.2199 11.4352 58.3689 10.6954 56.5937C8.80895 51.7476 6.77424 42.3885 4.59202 28.5166C4.44379 27.5547 4.6656 26.7038 5.18352 26.0383ZM84.6791 31.846C83.3475 29.5155 81.3868 28.11 78.7606 27.5547C78.0575 27.4069 77.392 27.3329 76.7628 27.3329C73.2117 27.3329 70.3264 29.1824 68.0699 32.8818C66.1461 36.0259 65.1845 39.5031 65.1845 43.3134C65.1845 46.1618 65.7764 48.6031 66.9601 50.6378C68.2917 52.9683 70.2524 54.3738 72.8786 54.9287C73.5814 55.0769 74.2472 55.1508 74.8764 55.1508C78.4645 55.1508 81.3498 53.3013 83.5694 49.602C85.4928 46.4205 86.4547 42.9433 86.4547 39.1334C86.4917 36.2481 85.8628 33.8433 84.6791 31.846ZM80.0182 42.0927C79.5003 44.5341 78.5754 46.3466 77.2065 47.5673C76.134 48.5292 75.1352 48.9358 74.2106 48.751C73.3226 48.5661 72.5825 47.7894 72.028 46.3466C71.5837 45.1999 71.3622 44.0531 71.3622 42.9803C71.3622 42.0557 71.4361 41.1308 71.621 40.2802C71.9541 38.7634 72.5829 37.2836 73.5814 35.878C74.8024 34.0652 76.0971 33.3258 77.4286 33.5846C78.3166 33.7694 79.0567 34.5465 79.6112 35.9889C80.0552 37.1357 80.277 38.2824 80.277 39.3552C80.277 40.3171 80.2031 41.2421 80.0182 42.0927ZM61.5221 31.846C60.1905 29.5155 58.1928 28.11 55.6036 27.5547C54.9008 27.4069 54.235 27.3329 53.6058 27.3329C50.0547 27.3329 47.1694 29.1824 44.9128 32.8818C42.9894 36.0259 42.0275 39.5031 42.0275 43.3134C42.0275 46.1618 42.6194 48.6031 43.8031 50.6378C45.1347 52.9683 47.0954 54.3738 49.7216 54.9287C50.4247 55.0769 51.0902 55.1508 51.7194 55.1508C55.3075 55.1508 58.1928 53.3013 60.4123 49.602C62.3361 46.4205 63.2977 42.9433 63.2977 39.1334C63.2977 36.2481 62.7058 33.8433 61.5221 31.846ZM56.8242 42.0927C56.3063 44.5341 55.3814 46.3466 54.0128 47.5673C52.94 48.5292 51.9412 48.9358 51.0162 48.751C50.1286 48.5661 49.3889 47.7894 48.8337 46.3466C48.39 45.1999 48.1682 44.0531 48.1682 42.9803C48.1682 42.0557 48.2422 41.1308 48.427 40.2802C48.7601 38.7634 49.3889 37.2836 50.3878 35.878C51.6085 34.0652 52.9031 33.3258 54.2347 33.5846C55.1226 33.7694 55.8627 34.5465 56.4172 35.9889C56.8616 37.1357 57.083 38.2824 57.083 39.3552C57.1203 40.3171 57.0091 41.2421 56.8242 42.0927Z" fill="#F6F6F6"/>
</svg>
