<svg width="65" height="65" viewBox="0 0 65 65" fill="none" xmlns="http://www.w3.org/2000/svg">
<g clip-path="url(#clip0_1829_996)">
<path d="M4.59062 32.5C4.59062 43.5703 10.9484 53.107 20.2313 57.5819L7.06469 21.1961C5.53516 24.7284 4.59062 28.4984 4.59062 32.5ZM51.3398 31.0863C51.3398 27.6737 50.0439 25.1956 48.9836 23.4325C47.5698 21.0763 46.2759 19.1933 46.2759 16.8391C46.2759 14.2492 48.2787 11.893 50.9884 11.893H51.3419C46.3937 7.30031 39.8003 4.59062 32.5 4.59062C27.8812 4.63152 23.3424 5.8009 19.2789 7.99694C15.2153 10.193 11.7502 13.3491 9.18531 17.1905H10.9525C13.8978 17.1905 18.3706 16.837 18.3706 16.837C19.9022 16.7192 20.02 18.9556 18.6062 19.1933C18.6062 19.1933 17.0747 19.4289 15.4273 19.4289L25.5552 49.5727L31.6773 31.3198L27.3203 19.4269L24.375 19.1953C22.8434 19.0775 23.0791 16.8391 24.4928 16.8391C24.4928 16.8391 29.0834 17.1925 31.7931 17.1925C34.7384 17.1925 39.2113 16.8391 39.2113 16.8391C40.7428 16.7213 40.8606 18.9577 39.4469 19.1953C39.4469 19.1953 37.9153 19.4309 36.268 19.4309L46.3937 49.4609L49.2375 40.1578C50.4156 36.272 51.3561 33.5644 51.3561 31.0903L51.3398 31.0863ZM32.9713 34.972L24.6106 59.2313C27.0827 59.9381 29.7903 60.4094 32.5 60.4094C35.7967 60.4094 38.8578 59.8 41.8031 58.8778C41.6853 58.76 41.6853 58.6422 41.5675 58.5244L32.9713 34.972ZM56.9928 19.1953L57.2284 22.0391C57.2284 24.8828 56.7572 28.0455 55.1098 32.0491L46.6314 56.6597C54.8742 51.8314 60.5252 42.8817 60.5252 32.5203C60.4073 27.692 59.1114 23.2172 56.9908 19.2156L56.9928 19.1953ZM32.5 0C14.6006 0 0 14.6006 0 32.5C0 50.3994 14.6006 65 32.5 65C50.3994 65 65 50.3994 65 32.5C65 14.6006 50.3994 0 32.5 0ZM32.5 63.5863C15.4253 63.5863 1.53156 49.6925 1.53156 32.5C1.54446 24.2906 4.81133 16.4212 10.6162 10.6162C16.4212 4.81133 24.2906 1.54446 32.5 1.53156C40.7094 1.54446 48.5788 4.81133 54.3838 10.6162C60.1887 16.4212 63.4555 24.2906 63.4684 32.5C63.4684 49.6925 49.5747 63.5863 32.5 63.5863Z" fill="#D5D5D5"/>
</g>
<defs>
<clipPath id="clip0_1829_996">
<rect width="65" height="65" fill="white"/>
</clipPath>
</defs>
</svg>
