<svg width="64" height="64" viewBox="0 0 64 64" fill="none" xmlns="http://www.w3.org/2000/svg">
<g clip-path="url(#clip0_1833_1035)">
<path d="M63.2062 26.4179H44.4312L57.6242 13.2249C56.6092 11.7029 55.5942 10.6879 54.5792 9.16487C53.1189 8.10942 51.76 6.92029 50.5202 5.61287L37.3292 18.8069V0.539867C35.6723 0.120462 33.9623 -0.0504043 32.2552 0.0328669C30.5468 -0.0772689 28.832 0.0940122 27.1792 0.539867V19.3149L13.4792 5.61487C11.9039 6.5178 10.5238 7.72485 9.41918 9.16587C8.40418 10.6879 6.88218 11.7029 5.86718 13.2259L19.0592 26.4179H0.793181L0.286181 31.4919C0.176265 33.1996 0.347545 34.9137 0.793181 36.5659H19.5692L5.86918 50.2659C7.87383 53.2846 10.4615 55.8722 13.4802 57.8769L26.6732 44.6839V63.4599C28.3301 63.8793 30.0401 64.0501 31.7472 63.9669C33.4549 64.0768 35.169 63.9055 36.8212 63.4599V44.6859L50.0132 57.8799C51.5882 56.9765 52.9679 55.7691 54.0722 54.3279C55.3796 53.088 56.5687 51.7292 57.6242 50.2689L44.4312 37.0739H63.2062C63.6259 35.417 63.7971 33.707 63.7142 31.9999C63.8217 30.1244 63.6498 28.2433 63.2062 26.4179ZM39.8642 31.4919C39.8138 33.7256 39.4726 35.9433 38.8492 38.0889C36.7523 38.9111 34.4992 39.2577 32.2522 39.1039C30.0184 39.0534 27.8008 38.7122 25.6552 38.0889C24.833 35.992 24.4863 33.7389 24.6402 31.4919C24.6906 29.2581 25.0318 27.0405 25.6552 24.8949C27.752 24.0727 30.0052 23.726 32.2522 23.8799C34.4859 23.9303 36.7036 24.2715 38.8492 24.8949C39.4345 27.0487 39.7749 29.2617 39.8642 31.4919Z" fill="#E0E0E0"/>
</g>
<defs>
<clipPath id="clip0_1833_1035">
<rect width="64" height="64" fill="white"/>
</clipPath>
</defs>
</svg>
